<?xml version="1.0" encoding="utf-8"?>
<!-- Generator: Adobe Illustrator 27.3.1, SVG Export Plug-In . SVG Version: 6.00 Build 0)  -->
<svg version="1.1" xmlns="http://www.w3.org/2000/svg" xmlns:xlink="http://www.w3.org/1999/xlink" x="0px" y="0px"
	 viewBox="0 0 294 110" enable-background="new 0 0 294 110" xml:space="preserve">
<g id="Backgrounds">
</g>
<g id="Graphic_Elements">
	<g>
		<path fill="#FE0100" d="M31.63,79.2c0,0.301-0.121,0.569-0.318,0.766c-0.195,0.195-0.466,0.315-0.764,0.315H6.931
			c-0.596,0-1.082-0.483-1.082-1.082c0-0.298,0.121-0.567,0.318-0.764c0.195-0.195,0.466-0.315,0.764-0.315h23.618
			C31.145,78.121,31.63,78.604,31.63,79.2z"/>
		<path fill="#FE0100" d="M34.001,83.547v4.303H3.481v-4.303c0-1.114,0.902-2.018,2.016-2.018h26.486
			C33.096,81.529,34.001,82.433,34.001,83.547z"/>
		<path fill="#FE0100" d="M12.922,57.407c0.399-4.549,0.421-8.462,0.409-10.158h-0.766c-1.843,0-3.334-1.493-3.334-3.334
			c0-0.269,0.108-0.51,0.283-0.685c0.175-0.175,0.416-0.283,0.685-0.283h17.082c0.535,0,0.968,0.434,0.968,0.968
			c0,0.919-0.375,1.755-0.976,2.358c-0.604,0.601-1.439,0.976-2.358,0.976h-0.769c-0.012,1.75,0.012,5.867,0.451,10.606
			c0.079,0.848,0.17,1.718,0.276,2.595c0.012,0.101,0.025,0.2,0.037,0.301c0.118,0.941,0.254,1.89,0.412,2.839
			c0.826,5.01,2.223,9.956,4.579,13.034H7.58C10.916,72.259,12.331,64.139,12.922,57.407z"/>
	</g>
	<path fill="#F40000" d="M12.212,76.623c3.433-6.429,8.075-11.708,12.698-15.872c0.118,0.941,0.254,1.89,0.412,2.839
		c0.825,5.01,2.223,9.956,4.579,13.033H12.212z"/>
	<path fill="#F40000" d="M10.45,80.282c0.315-0.734,0.648-1.454,0.996-2.161h19.103c0.596,0,1.082,0.483,1.082,1.079
		c0,0.301-0.121,0.569-0.318,0.766c-0.195,0.195-0.466,0.315-0.764,0.315H10.45z"/>
	<path fill="#F40000" d="M34.001,83.547v4.303H7.949c0.517-2.203,1.19-4.31,1.989-6.321h22.045
		C33.096,81.529,34.001,82.433,34.001,83.547z"/>
	<path fill="#EF0000" d="M29.9,76.623H15.474c2.817-5.249,6.385-9.596,9.847-13.033C26.147,68.599,27.545,73.545,29.9,76.623z"/>
	<path fill="#EF0000" d="M30.548,80.282H13.705c0.315-0.737,0.648-1.456,0.998-2.161h15.845c0.596,0,1.082,0.483,1.082,1.079
		c0,0.301-0.121,0.569-0.318,0.766C31.118,80.161,30.847,80.282,30.548,80.282z"/>
	<path fill="#EF0000" d="M34.001,83.547v4.303H11.197c0.517-2.215,1.193-4.322,1.986-6.321h18.8
		C33.096,81.529,34.001,82.433,34.001,83.547z"/>
	<rect x="9.352" y="39.779" fill="#EF0000" width="18.776" height="0.938"/>
	<path fill="#EF0000" d="M30.535,29.957l-2.292,8.704H9.234l-2.289-8.704c2.171,0.89,3.652,2.765,3.652,2.765l0.66-0.589
		c0.333-0.298,0.843-0.269,1.143,0.062c0.308,0.343,0.271,0.87-0.079,1.168l-0.564,0.473c-0.096,0.081-0.106,0.227-0.022,0.32
		l1.656,1.875c0.478,0.542,1.311,0.579,1.836,0.081l0.683-0.643c0.325-0.31,0.495-0.83,0.345-1.262
		c-0.111-0.315-0.34-0.574-0.584-0.803c-0.505-0.473-0.951-0.914-1.272-1.538c-0.261-0.51-0.426-1.065-0.498-1.629
		c-0.052-0.412-0.057-0.828-0.01-1.24c0.002-0.042,0.103-0.461,0.079-0.481c1.402,1.242,2.467,0.789,2.467,0.789
		c0.059-2.624,2.302-4.48,2.302-4.48s2.243,1.856,2.302,4.48c0,0,1.067,0.453,2.467-0.789c-0.022,0.02,0.076,0.439,0.081,0.481
		c0.044,0.412,0.042,0.828-0.01,1.24c-0.071,0.564-0.237,1.119-0.498,1.629c-0.32,0.623-0.766,1.065-1.274,1.538
		c-0.244,0.229-0.471,0.488-0.582,0.803c-0.15,0.431,0.02,0.951,0.345,1.262l0.68,0.643c0.525,0.498,1.358,0.461,1.838-0.081
		l1.656-1.875c0.084-0.094,0.071-0.239-0.025-0.32l-0.562-0.473c-0.352-0.298-0.389-0.826-0.079-1.168
		c0.298-0.33,0.808-0.36,1.143-0.062l0.66,0.589C26.883,32.722,28.364,30.847,30.535,29.957z"/>
	<path fill="#F40000" d="M19.026,42.946c-0.101,0.483-0.355,1.612-0.791,3.105c-0.113,0.377-0.234,0.779-0.37,1.198
		c-0.961,2.997-2.548,6.942-4.943,10.158c0.399-4.549,0.421-8.462,0.409-10.158h-0.766c-1.843,0-3.334-1.493-3.334-3.334
		c0-0.269,0.108-0.51,0.283-0.685c0.175-0.175,0.416-0.283,0.685-0.283H19.026z"/>
	<g>
		<g>
			<g>
				<path d="M155.196,56.337V42.203h1.494v14.134H155.196z"/>
				<path d="M160.708,56.337V42.203h1.232l6.461,11.024h-0.646l6.401-11.024h1.231v14.134h-1.434V44.444h0.343l-5.896,10.096h-0.707
					l-5.937-10.096h0.384v11.893H160.708z"/>
				<path d="M179.406,56.337V42.203h1.232l6.461,11.024h-0.646l6.401-11.024h1.231v14.134h-1.434V44.444h0.343l-5.896,10.096h-0.707
					l-5.937-10.096h0.384v11.893H179.406z"/>
				<path d="M198.103,56.337V42.203h1.494v14.134H198.103z"/>
				<path d="M209.814,56.458c-1.077,0-2.069-0.178-2.978-0.535c-0.909-0.356-1.696-0.858-2.362-1.504
					c-0.667-0.646-1.185-1.406-1.555-2.282c-0.37-0.874-0.555-1.83-0.555-2.867c0-1.036,0.185-1.991,0.555-2.867
					c0.37-0.874,0.892-1.635,1.565-2.281c0.673-0.646,1.464-1.147,2.373-1.504s1.901-0.535,2.979-0.535
					c1.077,0,2.062,0.168,2.958,0.505c0.895,0.336,1.659,0.848,2.292,1.534l-0.929,0.949c-0.593-0.593-1.245-1.017-1.958-1.272
					c-0.714-0.255-1.481-0.384-2.302-0.384c-0.875,0-1.68,0.146-2.413,0.435c-0.734,0.289-1.373,0.7-1.918,1.231
					c-0.545,0.532-0.969,1.151-1.272,1.857c-0.303,0.707-0.454,1.484-0.454,2.332c0,0.835,0.151,1.609,0.454,2.322
					c0.303,0.714,0.727,1.336,1.272,1.868c0.545,0.531,1.184,0.942,1.918,1.231c0.733,0.289,1.531,0.434,2.393,0.434
					c0.808,0,1.572-0.121,2.292-0.363c0.72-0.242,1.383-0.652,1.989-1.231l0.848,1.131c-0.673,0.593-1.461,1.04-2.363,1.343
					S210.796,56.458,209.814,56.458z M215.003,54.661l-1.434-0.182v-5.21h1.434V54.661z"/>
				<path d="M218.637,56.337V42.203h5.29c1.79,0,3.201,0.428,4.23,1.282s1.544,2.043,1.544,3.563c0,0.996-0.232,1.854-0.697,2.574
					c-0.464,0.721-1.127,1.272-1.989,1.656s-1.891,0.575-3.089,0.575h-4.462l0.666-0.687v5.169H218.637z M220.132,51.289
					l-0.666-0.707h4.422c1.413,0,2.486-0.31,3.22-0.929s1.101-1.487,1.101-2.604c0-1.131-0.367-2.006-1.101-2.625
					s-1.807-0.929-3.22-0.929h-4.422l0.666-0.707V51.289z M228.289,56.337l-3.634-5.129h1.615l3.655,5.129H228.289z"/>
				<path d="M230.389,56.337l6.461-14.134h1.474l6.461,14.134h-1.575l-5.936-13.266h0.605l-5.936,13.266H230.389z M232.933,52.561
					l0.444-1.212h8.218l0.444,1.212H232.933z"/>
				<path d="M249.288,56.337V43.495h-4.967v-1.292h11.429v1.292h-4.967v12.842H249.288z"/>
				<path d="M257.546,56.337V42.203h1.494v14.134H257.546z"/>
				<path d="M269.238,56.458c-1.063,0-2.049-0.178-2.958-0.535c-0.909-0.356-1.696-0.861-2.362-1.515
					c-0.667-0.652-1.185-1.413-1.555-2.281s-0.555-1.82-0.555-2.857c0-1.036,0.185-1.988,0.555-2.856s0.889-1.629,1.555-2.282
					c0.666-0.652,1.45-1.157,2.352-1.514s1.891-0.535,2.968-0.535c1.063,0,2.046,0.179,2.948,0.535s1.686,0.857,2.353,1.504
					c0.666,0.646,1.184,1.407,1.555,2.281c0.37,0.876,0.555,1.831,0.555,2.867c0,1.037-0.185,1.993-0.555,2.867
					c-0.371,0.876-0.889,1.636-1.555,2.282c-0.667,0.646-1.451,1.147-2.353,1.504C271.283,56.28,270.301,56.458,269.238,56.458z
					 M269.238,55.125c0.848,0,1.632-0.145,2.352-0.434s1.346-0.7,1.878-1.231c0.532-0.532,0.946-1.151,1.242-1.858
					c0.296-0.706,0.444-1.483,0.444-2.332c0-0.848-0.148-1.625-0.444-2.332c-0.296-0.706-0.71-1.325-1.242-1.857
					c-0.532-0.531-1.158-0.942-1.878-1.231s-1.504-0.435-2.352-0.435s-1.636,0.146-2.362,0.435c-0.727,0.289-1.36,0.7-1.898,1.231
					c-0.539,0.532-0.956,1.151-1.252,1.857c-0.296,0.707-0.444,1.484-0.444,2.332c0,0.835,0.148,1.609,0.444,2.322
					c0.296,0.714,0.713,1.336,1.252,1.868c0.538,0.531,1.171,0.942,1.898,1.231C267.602,54.98,268.389,55.125,269.238,55.125z"/>
				<path d="M279.414,56.337V42.203h1.232l9.752,12.276h-0.646V42.203h1.474v14.134h-1.231l-9.732-12.276h0.646v12.276H279.414z"/>
			</g>
		</g>
		<g>
			<linearGradient id="SVGID_1_" gradientUnits="userSpaceOnUse" x1="155.1961" y1="49.2697" x2="291.2259" y2="49.2697">
				<stop  offset="2.770450e-07" style="stop-color:#FE0100"/>
				<stop  offset="0.3045" style="stop-color:#EF0000"/>
				<stop  offset="0.6531" style="stop-color:#C60000"/>
				<stop  offset="1" style="stop-color:#FE0100"/>
			</linearGradient>
			<path fill="url(#SVGID_1_)" d="M155.196,56.337V42.203h1.494v14.134H155.196z"/>
			
				<linearGradient id="SVGID_00000142171138771026331700000007051358806119759750_" gradientUnits="userSpaceOnUse" x1="155.1961" y1="49.2697" x2="291.2259" y2="49.2697">
				<stop  offset="2.770450e-07" style="stop-color:#FE0100"/>
				<stop  offset="0.3045" style="stop-color:#EF0000"/>
				<stop  offset="0.6531" style="stop-color:#C60000"/>
				<stop  offset="1" style="stop-color:#FE0100"/>
			</linearGradient>
			<path fill="url(#SVGID_00000142171138771026331700000007051358806119759750_)" d="M160.708,56.337V42.203h1.232l6.461,11.024
				h-0.646l6.401-11.024h1.231v14.134h-1.434V44.444h0.343l-5.896,10.096h-0.707l-5.937-10.096h0.384v11.893H160.708z"/>
			
				<linearGradient id="SVGID_00000119075258768603528180000002705660697523748748_" gradientUnits="userSpaceOnUse" x1="155.1961" y1="49.2697" x2="291.2259" y2="49.2697">
				<stop  offset="2.770450e-07" style="stop-color:#FE0100"/>
				<stop  offset="0.3045" style="stop-color:#EF0000"/>
				<stop  offset="0.6531" style="stop-color:#C60000"/>
				<stop  offset="1" style="stop-color:#FE0100"/>
			</linearGradient>
			<path fill="url(#SVGID_00000119075258768603528180000002705660697523748748_)" d="M179.406,56.337V42.203h1.232l6.461,11.024
				h-0.646l6.401-11.024h1.231v14.134h-1.434V44.444h0.343l-5.896,10.096h-0.707l-5.937-10.096h0.384v11.893H179.406z"/>
			
				<linearGradient id="SVGID_00000119096491228598679440000015751345710383940770_" gradientUnits="userSpaceOnUse" x1="155.1961" y1="49.2697" x2="291.2259" y2="49.2697">
				<stop  offset="2.770450e-07" style="stop-color:#FE0100"/>
				<stop  offset="0.3045" style="stop-color:#EF0000"/>
				<stop  offset="0.6531" style="stop-color:#C60000"/>
				<stop  offset="1" style="stop-color:#FE0100"/>
			</linearGradient>
			<path fill="url(#SVGID_00000119096491228598679440000015751345710383940770_)" d="M198.103,56.337V42.203h1.494v14.134H198.103z"
				/>
			
				<linearGradient id="SVGID_00000103980572800508152750000015291115947140104602_" gradientUnits="userSpaceOnUse" x1="155.1961" y1="49.2697" x2="291.2259" y2="49.2697">
				<stop  offset="2.770450e-07" style="stop-color:#FE0100"/>
				<stop  offset="0.3045" style="stop-color:#EF0000"/>
				<stop  offset="0.6531" style="stop-color:#C60000"/>
				<stop  offset="1" style="stop-color:#FE0100"/>
			</linearGradient>
			<path fill="url(#SVGID_00000103980572800508152750000015291115947140104602_)" d="M209.814,56.458
				c-1.077,0-2.069-0.178-2.978-0.535c-0.909-0.356-1.696-0.858-2.362-1.504c-0.667-0.646-1.185-1.406-1.555-2.282
				c-0.37-0.874-0.555-1.83-0.555-2.867c0-1.036,0.185-1.991,0.555-2.867c0.37-0.874,0.892-1.635,1.565-2.281
				c0.673-0.646,1.464-1.147,2.373-1.504s1.901-0.535,2.979-0.535c1.077,0,2.062,0.168,2.958,0.505
				c0.895,0.336,1.659,0.848,2.292,1.534l-0.929,0.949c-0.593-0.593-1.245-1.017-1.958-1.272c-0.714-0.255-1.481-0.384-2.302-0.384
				c-0.875,0-1.68,0.146-2.413,0.435c-0.734,0.289-1.373,0.7-1.918,1.231c-0.545,0.532-0.969,1.151-1.272,1.857
				c-0.303,0.707-0.454,1.484-0.454,2.332c0,0.835,0.151,1.609,0.454,2.322c0.303,0.714,0.727,1.336,1.272,1.868
				c0.545,0.531,1.184,0.942,1.918,1.231c0.733,0.289,1.531,0.434,2.393,0.434c0.808,0,1.572-0.121,2.292-0.363
				c0.72-0.242,1.383-0.652,1.989-1.231l0.848,1.131c-0.673,0.593-1.461,1.04-2.363,1.343S210.796,56.458,209.814,56.458z
				 M215.003,54.661l-1.434-0.182v-5.21h1.434V54.661z"/>
			
				<linearGradient id="SVGID_00000158736208280167366910000012415780056221443724_" gradientUnits="userSpaceOnUse" x1="155.1961" y1="49.2697" x2="291.2259" y2="49.2697">
				<stop  offset="2.770450e-07" style="stop-color:#FE0100"/>
				<stop  offset="0.3045" style="stop-color:#EF0000"/>
				<stop  offset="0.6531" style="stop-color:#C60000"/>
				<stop  offset="1" style="stop-color:#FE0100"/>
			</linearGradient>
			<path fill="url(#SVGID_00000158736208280167366910000012415780056221443724_)" d="M218.637,56.337V42.203h5.29
				c1.79,0,3.201,0.428,4.23,1.282s1.544,2.043,1.544,3.563c0,0.996-0.232,1.854-0.697,2.574c-0.464,0.721-1.127,1.272-1.989,1.656
				s-1.891,0.575-3.089,0.575h-4.462l0.666-0.687v5.169H218.637z M220.132,51.289l-0.666-0.707h4.422c1.413,0,2.486-0.31,3.22-0.929
				s1.101-1.487,1.101-2.604c0-1.131-0.367-2.006-1.101-2.625s-1.807-0.929-3.22-0.929h-4.422l0.666-0.707V51.289z M228.289,56.337
				l-3.634-5.129h1.615l3.655,5.129H228.289z"/>
			
				<linearGradient id="SVGID_00000183931710191912917780000008455877732680711353_" gradientUnits="userSpaceOnUse" x1="155.1961" y1="49.2697" x2="291.2259" y2="49.2697">
				<stop  offset="2.770450e-07" style="stop-color:#FE0100"/>
				<stop  offset="0.3045" style="stop-color:#EF0000"/>
				<stop  offset="0.6531" style="stop-color:#C60000"/>
				<stop  offset="1" style="stop-color:#FE0100"/>
			</linearGradient>
			<path fill="url(#SVGID_00000183931710191912917780000008455877732680711353_)" d="M230.389,56.337l6.461-14.134h1.474
				l6.461,14.134h-1.575l-5.936-13.266h0.605l-5.936,13.266H230.389z M232.933,52.561l0.444-1.212h8.218l0.444,1.212H232.933z"/>
			
				<linearGradient id="SVGID_00000152255462169236675690000002649687108653675140_" gradientUnits="userSpaceOnUse" x1="155.1961" y1="49.2697" x2="291.2259" y2="49.2697">
				<stop  offset="2.770450e-07" style="stop-color:#FE0100"/>
				<stop  offset="0.3045" style="stop-color:#EF0000"/>
				<stop  offset="0.6531" style="stop-color:#C60000"/>
				<stop  offset="1" style="stop-color:#FE0100"/>
			</linearGradient>
			<path fill="url(#SVGID_00000152255462169236675690000002649687108653675140_)" d="M249.288,56.337V43.495h-4.967v-1.292h11.429
				v1.292h-4.967v12.842H249.288z"/>
			
				<linearGradient id="SVGID_00000032631846281145275910000006833174689986037418_" gradientUnits="userSpaceOnUse" x1="155.1961" y1="49.2697" x2="291.2259" y2="49.2697">
				<stop  offset="2.770450e-07" style="stop-color:#FE0100"/>
				<stop  offset="0.3045" style="stop-color:#EF0000"/>
				<stop  offset="0.6531" style="stop-color:#C60000"/>
				<stop  offset="1" style="stop-color:#FE0100"/>
			</linearGradient>
			<path fill="url(#SVGID_00000032631846281145275910000006833174689986037418_)" d="M257.546,56.337V42.203h1.494v14.134H257.546z"
				/>
			
				<linearGradient id="SVGID_00000130606833381263193460000010121922320752767624_" gradientUnits="userSpaceOnUse" x1="155.1961" y1="49.2697" x2="291.2259" y2="49.2697">
				<stop  offset="2.770450e-07" style="stop-color:#FE0100"/>
				<stop  offset="0.3045" style="stop-color:#EF0000"/>
				<stop  offset="0.6531" style="stop-color:#C60000"/>
				<stop  offset="1" style="stop-color:#FE0100"/>
			</linearGradient>
			<path fill="url(#SVGID_00000130606833381263193460000010121922320752767624_)" d="M269.238,56.458
				c-1.063,0-2.049-0.178-2.958-0.535c-0.909-0.356-1.696-0.861-2.362-1.515c-0.667-0.652-1.185-1.413-1.555-2.281
				s-0.555-1.82-0.555-2.857c0-1.036,0.185-1.988,0.555-2.856s0.889-1.629,1.555-2.282c0.666-0.652,1.45-1.157,2.352-1.514
				s1.891-0.535,2.968-0.535c1.063,0,2.046,0.179,2.948,0.535s1.686,0.857,2.353,1.504c0.666,0.646,1.184,1.407,1.555,2.281
				c0.37,0.876,0.555,1.831,0.555,2.867c0,1.037-0.185,1.993-0.555,2.867c-0.371,0.876-0.889,1.636-1.555,2.282
				c-0.667,0.646-1.451,1.147-2.353,1.504C271.283,56.28,270.301,56.458,269.238,56.458z M269.238,55.125
				c0.848,0,1.632-0.145,2.352-0.434s1.346-0.7,1.878-1.231c0.532-0.532,0.946-1.151,1.242-1.858
				c0.296-0.706,0.444-1.483,0.444-2.332c0-0.848-0.148-1.625-0.444-2.332c-0.296-0.706-0.71-1.325-1.242-1.857
				c-0.532-0.531-1.158-0.942-1.878-1.231s-1.504-0.435-2.352-0.435s-1.636,0.146-2.362,0.435c-0.727,0.289-1.36,0.7-1.898,1.231
				c-0.539,0.532-0.956,1.151-1.252,1.857c-0.296,0.707-0.444,1.484-0.444,2.332c0,0.835,0.148,1.609,0.444,2.322
				c0.296,0.714,0.713,1.336,1.252,1.868c0.538,0.531,1.171,0.942,1.898,1.231C267.602,54.98,268.389,55.125,269.238,55.125z"/>
			
				<linearGradient id="SVGID_00000005252187147390323770000002050394551459628703_" gradientUnits="userSpaceOnUse" x1="155.1961" y1="49.2697" x2="291.2259" y2="49.2697">
				<stop  offset="2.770450e-07" style="stop-color:#FE0100"/>
				<stop  offset="0.3045" style="stop-color:#EF0000"/>
				<stop  offset="0.6531" style="stop-color:#C60000"/>
				<stop  offset="1" style="stop-color:#FE0100"/>
			</linearGradient>
			<path fill="url(#SVGID_00000005252187147390323770000002050394551459628703_)" d="M279.414,56.337V42.203h1.232l9.752,12.276
				h-0.646V42.203h1.474v14.134h-1.231l-9.732-12.276h0.646v12.276H279.414z"/>
		</g>
	</g>
	<g>
		<g>
			<path fill="#2B2B2B" d="M69.606,56.4c-0.413-0.112-0.752-0.35-1.02-0.665c-0.404-0.477-0.788-0.974-1.155-1.481
				c-1.057-1.454-1.911-3.057-3.193-4.367c0.016-0.007,0.034-0.018,0.053-0.021c0.746-0.134,1.41-0.45,1.967-0.956
				c0.962-0.871,1.324-1.99,1.236-3.256c-0.109-1.586-0.976-2.701-2.365-3.218c-0.817-0.304-1.675-0.427-2.545-0.434
				c-2.032-0.014-4.062-0.017-6.094-0.022c-0.067,0-0.135,0.03-0.218,0.049c0.032,0.045,0.039,0.068,0.056,0.077
				c0.606,0.344,0.752,0.91,0.752,1.546c0,3.495,0.001,6.99-0.002,10.484c0,0.215-0.012,0.431-0.041,0.644
				c-0.087,0.618-0.245,1.204-0.797,1.592c-0.017,0.013-0.022,0.043-0.048,0.099h4.638c-0.009-0.034-0.009-0.051-0.016-0.06
				c-0.023-0.026-0.046-0.052-0.074-0.072c-0.269-0.193-0.432-0.462-0.505-0.77c-0.09-0.377-0.186-0.764-0.193-1.148
				c-0.02-1.301-0.003-2.603,0.008-3.904c0.001-0.047,0.08-0.133,0.123-0.134c0.412-0.01,0.824-0.011,1.235,0.003
				c0.076,0.002,0.176,0.058,0.22,0.12c0.432,0.623,0.858,1.252,1.28,1.882c0.821,1.226,1.65,2.447,2.338,3.756
				c0.125,0.24,0.267,0.35,0.561,0.346c1.214-0.012,2.429,0.012,3.643,0.02c0.07,0,0.142-0.014,0.255-0.027
				C69.646,56.432,69.629,56.406,69.606,56.4z M61.979,49.062c-0.582,0.049-1.171,0.021-1.756,0.031
				c-0.137,0.002-0.197-0.04-0.196-0.194c0.007-0.918,0.004-1.835,0.004-2.754h-0.013c0-0.925,0.001-1.85-0.002-2.775
				c0-0.102,0.025-0.156,0.14-0.154c0.675,0.013,1.356-0.025,2.025,0.045c1.138,0.12,1.884,0.801,2.156,1.91
				c0.21,0.855,0.154,1.692-0.248,2.496C63.65,48.541,62.924,48.983,61.979,49.062z"/>
			<path fill="#2B2B2B" d="M108.523,49.379c-0.115,0.096-0.177,0.153-0.245,0.204c-0.306,0.232-0.462,0.508-0.455,0.921
				c0.028,1.629,0.02,3.258,0.015,4.887c0,0.079-0.079,0.195-0.152,0.23c-1.052,0.503-2.168,0.799-3.318,0.976
				c-1.158,0.179-2.318,0.194-3.483,0.046c-1.26-0.16-2.43-0.565-3.482-1.272c-1.316-0.885-2.208-2.096-2.629-3.624
				c-0.386-1.402-0.475-2.836-0.157-4.257c0.618-2.765,2.281-4.62,5.034-5.403c2.12-0.604,4.25-0.504,6.354,0.139
				c0.285,0.087,0.553,0.228,0.832,0.337c0.137,0.054,0.185,0.141,0.189,0.286c0.019,0.668,0.047,1.335,0.075,2.004
				c0.005,0.112,0.02,0.223,0.031,0.334c-0.016,0.007-0.033,0.013-0.05,0.02c-0.039-0.051-0.083-0.099-0.119-0.152
				c-0.738-1.086-1.762-1.756-3.041-2.012c-1.503-0.302-2.91-0.087-4.1,0.956c-0.774,0.678-1.278,1.541-1.561,2.525
				c-0.428,1.49-0.452,3.004-0.185,4.525c0.224,1.282,0.7,2.44,1.646,3.375c0.925,0.914,2.056,1.263,3.322,1.18
				c0.531-0.035,1.051-0.193,1.578-0.291c0.153-0.029,0.207-0.12,0.203-0.265c-0.009-0.25-0.02-0.501-0.02-0.751
				c-0.003-1.204-0.018-2.41,0.007-3.613c0.009-0.427-0.162-0.716-0.477-0.959c-0.124-0.095-0.246-0.194-0.368-0.291
				c0.007-0.018,0.013-0.038,0.021-0.056H108.523z"/>
			<path fill="#2B2B2B" d="M95.154,56.436c-0.002,0.018-0.004,0.037-0.007,0.055c-0.084,0.008-0.168,0.022-0.252,0.022
				c-1.32-0.004-2.639-0.007-3.958-0.019c-0.071-0.001-0.182-0.065-0.204-0.125c-0.511-1.367-1.421-2.499-2.198-3.709
				c-0.382-0.595-0.796-1.17-1.211-1.775c-0.035,0.039-0.09,0.087-0.128,0.144c-0.77,1.21-1.544,2.418-2.301,3.636
				c-0.216,0.347-0.42,0.718-0.377,1.151c0.02,0.208,0.094,0.411,0.152,0.647h-3.72c-0.004-0.013-0.008-0.027-0.012-0.04
				c0.155-0.083,0.314-0.16,0.465-0.25c0.665-0.395,1.126-0.991,1.554-1.612c1.106-1.606,2.207-3.215,3.312-4.821
				c0.066-0.096,0.074-0.157-0.015-0.249c-0.11-0.114-0.194-0.253-0.283-0.386c-1.165-1.743-2.327-3.486-3.492-5.228
				c-0.2-0.3-0.402-0.603-0.623-0.889c-0.267-0.346-0.594-0.625-1.002-0.801c-0.059-0.025-0.11-0.069-0.165-0.105
				c0.007-0.022,0.013-0.044,0.02-0.066c0.072-0.005,0.144-0.013,0.218-0.013c1.347-0.008,2.695-0.012,4.042-0.023
				c0.154-0.001,0.261,0.037,0.296,0.195c0.17,0.788,0.619,1.439,1.051,2.095c0.568,0.86,1.153,1.707,1.732,2.559
				c0.012,0.016,0.03,0.029,0.078,0.074c0.02-0.037,0.039-0.073,0.06-0.108c0.708-1.157,1.415-2.315,2.121-3.473
				c0.062-0.101,0.108-0.211,0.156-0.319c0.116-0.256,0.099-0.498-0.075-0.726c-0.048-0.064-0.079-0.14-0.14-0.247h3.449
				c-0.06,0.057-0.09,0.103-0.133,0.124c-0.555,0.264-0.949,0.702-1.287,1.195c-1.03,1.506-2.053,3.016-3.079,4.523
				c-0.201,0.297-0.206,0.298-0.007,0.599c1.464,2.211,2.927,4.423,4.398,6.63c0.343,0.514,0.743,0.977,1.331,1.233
				C94.997,56.369,95.076,56.403,95.154,56.436z"/>
			<path fill="#2B2B2B" d="M147.659,54.071c-0.019,0.723-0.049,1.446-0.057,2.17c-0.002,0.202-0.064,0.259-0.263,0.257
				c-1.982-0.014-3.965-0.022-5.947-0.03c-1.312-0.005-2.625-0.007-3.937-0.011c-0.066,0-0.133-0.006-0.269-0.013
				c0.112-0.096,0.173-0.156,0.241-0.208c0.492-0.376,0.706-0.89,0.711-1.489c0.011-1.294,0.006-2.589,0.006-3.884
				c0-2.421,0.002-4.844-0.003-7.266c-0.001-0.497-0.085-0.973-0.483-1.329c-0.09-0.081-0.197-0.144-0.346-0.25
				c0.107-0.021,0.161-0.04,0.215-0.041c1.613,0,3.224,0.003,4.836,0.003c1.438,0,2.876-0.002,4.313-0.006
				c0.105,0,0.159,0.03,0.16,0.139c0.005,0.703,0.012,1.406,0.016,2.109c0,0.023-0.019,0.047-0.039,0.092
				c-0.093-0.095-0.17-0.181-0.255-0.259c-0.453-0.418-1.015-0.613-1.605-0.701c-0.542-0.081-1.095-0.112-1.644-0.13
				c-0.684-0.021-1.368-0.007-2.052-0.008c-0.04,0-0.081,0.008-0.145,0.013c0,0.076-0.001,0.143,0,0.21
				c0.001,1.594,0.004,3.188,0.003,4.782c0,0.11,0.002,0.189,0.147,0.187c0.879-0.015,1.764,0.027,2.636-0.055
				c0.586-0.056,1.157-0.284,1.735-0.437c0.085-0.022,0.168-0.053,0.263-0.084v2.455c-0.062-0.033-0.107-0.048-0.143-0.076
				c-0.553-0.432-1.203-0.578-1.881-0.594c-0.858-0.02-1.717-0.008-2.576-0.014c-0.143-0.002-0.191,0.044-0.19,0.194
				c0.006,1.74,0.007,3.481,0.004,5.22c-0.001,0.129,0.023,0.192,0.168,0.19c1.054-0.014,2.11,0.011,3.161-0.044
				c0.915-0.048,1.781-0.329,2.573-0.798c0.222-0.132,0.411-0.32,0.635-0.499C147.652,53.94,147.661,54.005,147.659,54.071z"/>
			<path fill="#2B2B2B" d="M80.688,53.848c-0.021,0.348-0.044,0.66-0.059,0.973c-0.022,0.494-0.046,0.987-0.055,1.481
				c-0.002,0.151-0.048,0.186-0.194,0.185c-3.288-0.012-6.576-0.018-9.864-0.026h-0.268c0.061-0.081,0.083-0.133,0.123-0.161
				c0.599-0.411,0.769-1.031,0.77-1.696c0.004-3.71-0.005-7.42-0.02-11.13c-0.003-0.53-0.184-0.997-0.671-1.292
				c-0.059-0.036-0.127-0.056-0.191-0.084c0.023-0.035,0.046-0.069,0.068-0.105c0.064-0.007,0.126-0.019,0.19-0.019
				c3.022,0.002,6.045,0.008,9.067,0.005c0.203,0,0.292,0.048,0.289,0.265c-0.009,0.672-0.003,1.344-0.003,2.048
				c-0.07-0.048-0.119-0.072-0.156-0.109c-0.512-0.514-1.167-0.709-1.854-0.84c-1.004-0.191-2.018-0.105-3.028-0.121
				c-0.236-0.004-0.472-0.001-0.734-0.001v5.189c1.606-0.05,3.251,0.206,4.802-0.617v2.55c-0.48-0.395-1.014-0.594-1.597-0.669
				c-0.194-0.024-0.388-0.056-0.582-0.057c-0.816-0.008-1.633-0.004-2.449-0.007c-0.132-0.001-0.204,0.028-0.203,0.187
				c0.005,0.787-0.002,1.572-0.003,2.359c-0.001,1.008-0.001,2.015-0.001,3.069c0.428,0,0.811,0.01,1.194-0.002
				c0.871-0.025,1.748-0.008,2.611-0.105c0.864-0.097,1.678-0.409,2.405-0.905C80.415,54.117,80.533,53.987,80.688,53.848z"/>
			<path fill="#2B2B2B" d="M136.61,44.463c0,0.011-0.015,0.021-0.024,0.031c-1.335-1.227-2.992-1.238-4.67-1.235
				c-0.005,0.062-0.013,0.115-0.013,0.168c-0.007,3.579-0.018,7.157-0.013,10.735c0.001,0.434,0.072,0.871,0.151,1.301
				c0.064,0.35,0.251,0.646,0.549,0.861c0.028,0.02,0.054,0.044,0.078,0.069c0.008,0.008,0.007,0.024,0.017,0.065h-4.754
				c0.065-0.074,0.089-0.119,0.126-0.141c0.443-0.262,0.618-0.693,0.699-1.16c0.072-0.423,0.124-0.854,0.126-1.282
				c0.013-3.459,0.011-6.919,0.013-10.378v-0.321c-0.734,0.057-1.436,0.102-2.135,0.168c-0.696,0.065-1.354,0.272-1.943,0.654
				c-0.223,0.144-0.417,0.337-0.64,0.521c-0.008-0.056-0.019-0.099-0.019-0.143c0.001-0.731,0.006-1.462,0.004-2.192
				c-0.001-0.125,0.021-0.194,0.169-0.194c3.574-0.002,7.148-0.008,10.722-0.012c0.461-0.001,0.921,0.001,1.383-0.002
				c0.095,0,0.161,0.012,0.162,0.132C136.6,42.89,136.606,43.676,136.61,44.463z"/>
			<g>
				<path fill="#2B2B2B" d="M114.071,41.979h3.399l5.748,14.169c0,0,0.35,0.725,0.875,0.825h-4.148l-4.998-14.644L114.071,41.979z"
					/>
				<path fill="#2B2B2B" d="M108.348,56.972c0,0,1.1-0.275,1.549-1.15l4.639-13.658l1.859,0.189l-4.723,13.844
					c0,0-0.075,0.65,0.575,0.775H108.348z"/>
				<rect x="112.646" y="51" fill="#2B2B2B" width="7.372" height="1.424"/>
			</g>
		</g>
	</g>
	<path fill="#2B2B2B" d="M56.616,63.216c74.926-0.459,158.977-0.463,233.903,0C215.593,63.679,131.542,63.675,56.616,63.216
		L56.616,63.216z"/>
	<g>
		<g>
			<path fill="#2B2B2B" d="M61.409,78.856c-0.657,0-1.264-0.11-1.822-0.331c-0.557-0.221-1.04-0.53-1.447-0.93
				s-0.726-0.869-0.955-1.41c-0.229-0.54-0.343-1.131-0.343-1.771s0.114-1.23,0.343-1.771c0.229-0.541,0.549-1.011,0.961-1.41
				s0.896-0.709,1.454-0.93c0.557-0.22,1.165-0.33,1.822-0.33c0.632,0,1.227,0.105,1.784,0.318c0.557,0.212,1.027,0.53,1.41,0.954
				l-0.586,0.586c-0.357-0.365-0.753-0.63-1.185-0.792c-0.433-0.162-0.898-0.243-1.397-0.243c-0.524,0-1.011,0.09-1.46,0.269
				s-0.84,0.433-1.173,0.761c-0.333,0.329-0.593,0.711-0.78,1.147c-0.187,0.438-0.281,0.918-0.281,1.441
				c0,0.524,0.094,1.005,0.281,1.441s0.447,0.819,0.78,1.147c0.333,0.329,0.724,0.583,1.173,0.762s0.936,0.268,1.46,0.268
				c0.499,0,0.965-0.083,1.397-0.249c0.432-0.166,0.828-0.433,1.185-0.799l0.586,0.587c-0.382,0.424-0.853,0.744-1.41,0.96
				C62.649,78.748,62.05,78.856,61.409,78.856z"/>
			<path fill="#2B2B2B" d="M69.021,78.843c-0.491,0-0.917-0.081-1.279-0.243s-0.638-0.387-0.83-0.674s-0.287-0.618-0.287-0.992
				c0-0.341,0.082-0.65,0.244-0.93c0.162-0.278,0.428-0.503,0.798-0.674c0.37-0.17,0.867-0.256,1.491-0.256h2.258v0.662h-2.233
				c-0.632,0-1.071,0.111-1.316,0.336c-0.246,0.225-0.368,0.504-0.368,0.837c0,0.374,0.146,0.673,0.437,0.897
				c0.291,0.225,0.699,0.337,1.223,0.337c0.499,0,0.929-0.114,1.292-0.343c0.362-0.229,0.625-0.56,0.792-0.992l0.2,0.611
				c-0.167,0.433-0.456,0.778-0.867,1.036S69.644,78.843,69.021,78.843z M71.279,78.781v-1.447l-0.038-0.237v-2.421
				c0-0.557-0.156-0.985-0.468-1.285c-0.312-0.299-0.776-0.448-1.391-0.448c-0.424,0-0.828,0.07-1.21,0.212
				c-0.383,0.142-0.707,0.328-0.973,0.562L66.8,73.054c0.333-0.283,0.732-0.502,1.198-0.655c0.466-0.154,0.957-0.231,1.473-0.231
				c0.848,0,1.503,0.211,1.965,0.631c0.462,0.42,0.692,1.059,0.692,1.915v4.067H71.279z"/>
			<path fill="#2B2B2B" d="M75.434,78.781V72.23h0.848v1.797l-0.137-0.337c0.208-0.474,0.541-0.846,0.999-1.116
				c0.457-0.271,1.002-0.406,1.634-0.406c0.532,0,1,0.103,1.404,0.306c0.403,0.204,0.719,0.514,0.948,0.93
				c0.229,0.416,0.343,0.94,0.343,1.572v3.806h-0.886v-3.718c0-0.69-0.172-1.213-0.518-1.566s-0.83-0.53-1.454-0.53
				c-0.466,0-0.872,0.094-1.217,0.281c-0.345,0.187-0.611,0.457-0.798,0.811s-0.281,0.78-0.281,1.279v3.443H75.434z"/>
			<path fill="#2B2B2B" d="M86.614,78.843c-0.491,0-0.917-0.081-1.279-0.243s-0.638-0.387-0.83-0.674s-0.287-0.618-0.287-0.992
				c0-0.341,0.082-0.65,0.244-0.93c0.162-0.278,0.428-0.503,0.798-0.674c0.37-0.17,0.867-0.256,1.491-0.256h2.258v0.662h-2.233
				c-0.632,0-1.071,0.111-1.316,0.336c-0.246,0.225-0.368,0.504-0.368,0.837c0,0.374,0.146,0.673,0.437,0.897
				c0.291,0.225,0.699,0.337,1.223,0.337c0.499,0,0.929-0.114,1.292-0.343c0.362-0.229,0.625-0.56,0.792-0.992l0.2,0.611
				c-0.167,0.433-0.456,0.778-0.867,1.036S87.237,78.843,86.614,78.843z M88.872,78.781v-1.447l-0.038-0.237v-2.421
				c0-0.557-0.156-0.985-0.468-1.285c-0.312-0.299-0.776-0.448-1.391-0.448c-0.424,0-0.828,0.07-1.21,0.212
				c-0.383,0.142-0.707,0.328-0.973,0.562l-0.399-0.661c0.333-0.283,0.732-0.502,1.198-0.655c0.466-0.154,0.957-0.231,1.473-0.231
				c0.848,0,1.503,0.211,1.965,0.631c0.462,0.42,0.692,1.059,0.692,1.915v4.067H88.872z"/>
			<path fill="#2B2B2B" d="M95.634,78.843c-0.624,0-1.183-0.142-1.678-0.425c-0.495-0.282-0.884-0.675-1.167-1.179
				c-0.283-0.503-0.424-1.083-0.424-1.74c0-0.666,0.142-1.248,0.424-1.747s0.672-0.888,1.167-1.167
				c0.495-0.278,1.055-0.418,1.678-0.418c0.574,0,1.088,0.13,1.541,0.387c0.454,0.259,0.815,0.635,1.085,1.13
				c0.271,0.495,0.406,1.1,0.406,1.815c0,0.707-0.133,1.31-0.399,1.809s-0.626,0.88-1.079,1.142
				C96.734,78.713,96.217,78.843,95.634,78.843z M95.697,78.057c0.466,0,0.884-0.106,1.254-0.318s0.662-0.512,0.874-0.898
				s0.318-0.834,0.318-1.341c0-0.516-0.106-0.965-0.318-1.348s-0.503-0.68-0.874-0.893c-0.37-0.212-0.788-0.317-1.254-0.317
				c-0.458,0-0.869,0.105-1.235,0.317c-0.366,0.213-0.657,0.51-0.873,0.893c-0.217,0.383-0.325,0.832-0.325,1.348
				c0,0.507,0.108,0.954,0.325,1.341c0.216,0.387,0.507,0.687,0.873,0.898C94.827,77.951,95.239,78.057,95.697,78.057z
				 M98.167,78.781v-1.972l0.087-1.322l-0.125-1.322v-4.642h0.886v9.258H98.167z"/>
			<path fill="#2B2B2B" d="M104.231,78.843c-0.491,0-0.917-0.081-1.279-0.243s-0.638-0.387-0.83-0.674s-0.287-0.618-0.287-0.992
				c0-0.341,0.082-0.65,0.244-0.93c0.162-0.278,0.428-0.503,0.798-0.674c0.37-0.17,0.867-0.256,1.491-0.256h2.258v0.662h-2.233
				c-0.632,0-1.071,0.111-1.316,0.336c-0.246,0.225-0.368,0.504-0.368,0.837c0,0.374,0.146,0.673,0.437,0.897
				c0.291,0.225,0.699,0.337,1.223,0.337c0.499,0,0.929-0.114,1.292-0.343c0.362-0.229,0.625-0.56,0.792-0.992l0.2,0.611
				c-0.167,0.433-0.456,0.778-0.867,1.036S104.855,78.843,104.231,78.843z M106.49,78.781v-1.447l-0.038-0.237v-2.421
				c0-0.557-0.156-0.985-0.468-1.285c-0.312-0.299-0.776-0.448-1.391-0.448c-0.424,0-0.828,0.07-1.21,0.212
				c-0.383,0.142-0.707,0.328-0.973,0.562l-0.399-0.661c0.333-0.283,0.732-0.502,1.198-0.655c0.466-0.154,0.957-0.231,1.473-0.231
				c0.848,0,1.503,0.211,1.965,0.631c0.462,0.42,0.692,1.059,0.692,1.915v4.067H106.49z"/>
			<path fill="#2B2B2B" d="M114.999,78.781v-8.734h0.923v8.734H114.999z"/>
			<path fill="#2B2B2B" d="M119.478,78.781V72.23h0.848v1.772l-0.137-0.312c0.2-0.474,0.522-0.846,0.967-1.116
				c0.445-0.271,0.971-0.406,1.578-0.406c0.641,0,1.186,0.16,1.635,0.48s0.74,0.801,0.873,1.441l-0.349-0.138
				c0.191-0.532,0.53-0.962,1.017-1.291c0.487-0.328,1.071-0.493,1.753-0.493c0.532,0,0.996,0.103,1.391,0.306
				c0.395,0.204,0.703,0.514,0.923,0.93c0.22,0.416,0.331,0.94,0.331,1.572v3.806h-0.886v-3.718c0-0.69-0.165-1.213-0.493-1.566
				s-0.792-0.53-1.391-0.53c-0.449,0-0.838,0.094-1.167,0.281c-0.329,0.187-0.583,0.457-0.761,0.811s-0.268,0.78-0.268,1.279v3.443
				h-0.886v-3.718c0-0.69-0.167-1.213-0.5-1.566c-0.333-0.354-0.798-0.53-1.397-0.53c-0.441,0-0.828,0.094-1.16,0.281
				c-0.333,0.187-0.588,0.457-0.768,0.811c-0.179,0.354-0.268,0.78-0.268,1.279v3.443H119.478z"/>
			<path fill="#2B2B2B" d="M133.615,78.781V72.23h0.848v1.772l-0.137-0.312c0.2-0.474,0.522-0.846,0.967-1.116
				c0.445-0.271,0.971-0.406,1.578-0.406c0.641,0,1.186,0.16,1.635,0.48s0.74,0.801,0.873,1.441l-0.349-0.138
				c0.191-0.532,0.53-0.962,1.017-1.291c0.487-0.328,1.071-0.493,1.753-0.493c0.532,0,0.996,0.103,1.391,0.306
				c0.395,0.204,0.703,0.514,0.923,0.93c0.22,0.416,0.331,0.94,0.331,1.572v3.806h-0.886v-3.718c0-0.69-0.165-1.213-0.493-1.566
				s-0.792-0.53-1.391-0.53c-0.449,0-0.838,0.094-1.167,0.281c-0.329,0.187-0.583,0.457-0.761,0.811s-0.268,0.78-0.268,1.279v3.443
				h-0.886v-3.718c0-0.69-0.167-1.213-0.5-1.566c-0.333-0.354-0.798-0.53-1.397-0.53c-0.441,0-0.828,0.094-1.16,0.281
				c-0.333,0.187-0.588,0.457-0.768,0.811c-0.179,0.354-0.268,0.78-0.268,1.279v3.443H133.615z"/>
			<path fill="#2B2B2B" d="M148.201,70.783c-0.183,0-0.337-0.062-0.462-0.187c-0.125-0.125-0.187-0.275-0.187-0.449
				c0-0.175,0.062-0.322,0.187-0.443c0.125-0.12,0.279-0.181,0.462-0.181c0.183,0,0.337,0.058,0.461,0.175
				c0.125,0.116,0.187,0.262,0.187,0.437c0,0.183-0.06,0.337-0.181,0.462C148.548,70.72,148.392,70.783,148.201,70.783z
				 M147.752,78.781V72.23h0.886v6.551H147.752z"/>
			<path fill="#2B2B2B" d="M154.639,78.531c-0.624,0-1.186-0.135-1.685-0.405c-0.499-0.27-0.892-0.646-1.179-1.129
				s-0.431-1.036-0.431-1.659c0-0.624,0.144-1.175,0.431-1.653s0.68-0.851,1.179-1.117c0.499-0.266,1.061-0.399,1.685-0.399
				c0.582,0,1.106,0.121,1.572,0.362s0.836,0.599,1.11,1.073c0.275,0.474,0.412,1.052,0.412,1.734c0,0.682-0.137,1.26-0.412,1.734
				c-0.274,0.474-0.645,0.836-1.11,1.085C155.745,78.407,155.221,78.531,154.639,78.531z M154.802,81.264
				c-0.599,0-1.173-0.088-1.722-0.263c-0.549-0.175-0.994-0.424-1.335-0.748l0.449-0.674c0.308,0.274,0.688,0.492,1.142,0.654
				c0.453,0.163,0.934,0.244,1.441,0.244c0.832,0,1.443-0.193,1.834-0.58c0.391-0.388,0.586-0.988,0.586-1.804v-1.634l0.125-1.123
				l-0.087-1.123V72.23h0.848v5.752c0,1.132-0.276,1.961-0.83,2.489S155.883,81.264,154.802,81.264z M154.726,77.746
				c0.482,0,0.911-0.103,1.285-0.306c0.375-0.204,0.669-0.487,0.886-0.849c0.216-0.362,0.324-0.78,0.324-1.254
				c0-0.475-0.108-0.891-0.324-1.248c-0.217-0.357-0.512-0.639-0.886-0.842c-0.374-0.204-0.803-0.306-1.285-0.306
				c-0.474,0-0.9,0.102-1.279,0.306c-0.378,0.203-0.674,0.484-0.886,0.842c-0.212,0.357-0.318,0.773-0.318,1.248
				c0,0.474,0.106,0.892,0.318,1.254c0.212,0.361,0.507,0.645,0.886,0.849C153.826,77.643,154.252,77.746,154.726,77.746z"/>
			<path fill="#2B2B2B" d="M161.452,78.781V72.23h0.848v1.784l-0.087-0.312c0.183-0.499,0.49-0.88,0.923-1.142
				s0.969-0.394,1.61-0.394v0.861c-0.033,0-0.067-0.002-0.1-0.006c-0.033-0.005-0.066-0.007-0.1-0.007
				c-0.69,0-1.231,0.21-1.622,0.63c-0.391,0.421-0.586,1.018-0.586,1.791v3.344H161.452z"/>
			<path fill="#2B2B2B" d="M169.2,78.843c-0.491,0-0.917-0.081-1.279-0.243s-0.638-0.387-0.83-0.674s-0.287-0.618-0.287-0.992
				c0-0.341,0.082-0.65,0.244-0.93c0.162-0.278,0.428-0.503,0.798-0.674c0.37-0.17,0.867-0.256,1.491-0.256h2.258v0.662h-2.233
				c-0.632,0-1.071,0.111-1.316,0.336c-0.246,0.225-0.368,0.504-0.368,0.837c0,0.374,0.146,0.673,0.437,0.897
				c0.291,0.225,0.699,0.337,1.223,0.337c0.499,0,0.929-0.114,1.292-0.343c0.362-0.229,0.625-0.56,0.792-0.992l0.2,0.611
				c-0.167,0.433-0.456,0.778-0.867,1.036S169.824,78.843,169.2,78.843z M171.458,78.781v-1.447l-0.038-0.237v-2.421
				c0-0.557-0.156-0.985-0.468-1.285c-0.312-0.299-0.776-0.448-1.391-0.448c-0.424,0-0.828,0.07-1.21,0.212
				c-0.383,0.142-0.707,0.328-0.973,0.562l-0.399-0.661c0.333-0.283,0.732-0.502,1.198-0.655c0.466-0.154,0.957-0.231,1.473-0.231
				c0.848,0,1.503,0.211,1.965,0.631c0.462,0.42,0.692,1.059,0.692,1.915v4.067H171.458z"/>
			<path fill="#2B2B2B" d="M174.59,72.966V72.23h4.055v0.736H174.59z M177.684,78.843c-0.616,0-1.09-0.166-1.422-0.499
				c-0.333-0.333-0.5-0.803-0.5-1.41v-6.151h0.886v6.102c0,0.383,0.098,0.678,0.293,0.886s0.476,0.312,0.842,0.312
				c0.391,0,0.715-0.112,0.973-0.337l0.312,0.636c-0.175,0.158-0.385,0.274-0.63,0.35C178.194,78.806,177.942,78.843,177.684,78.843
				z"/>
			<path fill="#2B2B2B" d="M182.027,70.783c-0.183,0-0.337-0.062-0.462-0.187c-0.125-0.125-0.187-0.275-0.187-0.449
				c0-0.175,0.062-0.322,0.187-0.443c0.125-0.12,0.279-0.181,0.462-0.181c0.183,0,0.337,0.058,0.461,0.175
				c0.125,0.116,0.187,0.262,0.187,0.437c0,0.183-0.06,0.337-0.181,0.462C182.374,70.72,182.218,70.783,182.027,70.783z
				 M181.577,78.781V72.23h0.886v6.551H181.577z"/>
			<path fill="#2B2B2B" d="M188.502,78.843c-0.641,0-1.21-0.144-1.709-0.431c-0.499-0.287-0.894-0.684-1.185-1.191
				c-0.292-0.508-0.437-1.081-0.437-1.722c0-0.657,0.146-1.235,0.437-1.734c0.291-0.499,0.686-0.891,1.185-1.173
				c0.5-0.283,1.069-0.425,1.709-0.425c0.649,0,1.225,0.144,1.728,0.431s0.898,0.679,1.186,1.173c0.287,0.495,0.43,1.071,0.43,1.729
				c0,0.648-0.143,1.225-0.43,1.728c-0.287,0.504-0.685,0.898-1.191,1.186C189.717,78.7,189.143,78.843,188.502,78.843z
				 M188.502,78.057c0.474,0,0.894-0.106,1.26-0.318c0.366-0.212,0.655-0.512,0.867-0.898s0.318-0.834,0.318-1.341
				c0-0.516-0.106-0.965-0.318-1.348s-0.501-0.68-0.867-0.893c-0.366-0.212-0.782-0.317-1.248-0.317
				c-0.466,0-0.882,0.105-1.248,0.317c-0.366,0.213-0.657,0.51-0.873,0.893c-0.217,0.383-0.325,0.832-0.325,1.348
				c0,0.507,0.108,0.954,0.325,1.341c0.216,0.387,0.505,0.687,0.867,0.898S188.036,78.057,188.502,78.057z"/>
			<path fill="#2B2B2B" d="M194.553,78.781V72.23h0.848v1.797l-0.137-0.337c0.208-0.474,0.541-0.846,0.999-1.116
				c0.457-0.271,1.002-0.406,1.634-0.406c0.532,0,1,0.103,1.404,0.306c0.403,0.204,0.719,0.514,0.948,0.93
				c0.229,0.416,0.343,0.94,0.343,1.572v3.806h-0.886v-3.718c0-0.69-0.172-1.213-0.518-1.566s-0.83-0.53-1.454-0.53
				c-0.466,0-0.872,0.094-1.217,0.281c-0.345,0.187-0.611,0.457-0.798,0.811s-0.281,0.78-0.281,1.279v3.443H194.553z"/>
			<path fill="#2B2B2B" d="M212.034,78.856c-0.657,0-1.264-0.11-1.822-0.331c-0.557-0.221-1.04-0.53-1.447-0.93
				s-0.726-0.869-0.955-1.41c-0.229-0.54-0.343-1.131-0.343-1.771s0.114-1.23,0.343-1.771c0.229-0.541,0.549-1.011,0.961-1.41
				s0.896-0.709,1.454-0.93c0.557-0.22,1.165-0.33,1.822-0.33c0.632,0,1.227,0.105,1.784,0.318c0.557,0.212,1.027,0.53,1.41,0.954
				l-0.586,0.586c-0.357-0.365-0.753-0.63-1.185-0.792c-0.433-0.162-0.898-0.243-1.397-0.243c-0.524,0-1.011,0.09-1.46,0.269
				s-0.84,0.433-1.173,0.761c-0.333,0.329-0.593,0.711-0.78,1.147c-0.187,0.438-0.281,0.918-0.281,1.441
				c0,0.524,0.094,1.005,0.281,1.441s0.447,0.819,0.78,1.147c0.333,0.329,0.724,0.583,1.173,0.762s0.936,0.268,1.46,0.268
				c0.499,0,0.965-0.083,1.397-0.249c0.432-0.166,0.828-0.433,1.185-0.799l0.586,0.587c-0.382,0.424-0.853,0.744-1.41,0.96
				C213.273,78.748,212.675,78.856,212.034,78.856z"/>
			<path fill="#2B2B2B" d="M220.469,78.843c-0.641,0-1.21-0.144-1.709-0.431c-0.499-0.287-0.894-0.684-1.185-1.191
				c-0.292-0.508-0.437-1.081-0.437-1.722c0-0.657,0.146-1.235,0.437-1.734c0.291-0.499,0.686-0.891,1.185-1.173
				c0.5-0.283,1.069-0.425,1.709-0.425c0.649,0,1.225,0.144,1.728,0.431s0.898,0.679,1.186,1.173c0.287,0.495,0.43,1.071,0.43,1.729
				c0,0.648-0.143,1.225-0.43,1.728c-0.287,0.504-0.685,0.898-1.191,1.186C221.683,78.7,221.109,78.843,220.469,78.843z
				 M220.469,78.057c0.474,0,0.894-0.106,1.26-0.318c0.366-0.212,0.655-0.512,0.867-0.898s0.318-0.834,0.318-1.341
				c0-0.516-0.106-0.965-0.318-1.348s-0.501-0.68-0.867-0.893c-0.366-0.212-0.782-0.317-1.248-0.317
				c-0.466,0-0.882,0.105-1.248,0.317c-0.366,0.213-0.657,0.51-0.873,0.893c-0.217,0.383-0.325,0.832-0.325,1.348
				c0,0.507,0.108,0.954,0.325,1.341c0.216,0.387,0.505,0.687,0.867,0.898S220.003,78.057,220.469,78.057z"/>
			<path fill="#2B2B2B" d="M226.52,78.781V72.23h0.848v1.797l-0.137-0.337c0.208-0.474,0.541-0.846,0.999-1.116
				c0.457-0.271,1.002-0.406,1.634-0.406c0.532,0,1,0.103,1.404,0.306c0.403,0.204,0.719,0.514,0.948,0.93
				c0.229,0.416,0.343,0.94,0.343,1.572v3.806h-0.886v-3.718c0-0.69-0.172-1.213-0.518-1.566s-0.83-0.53-1.454-0.53
				c-0.466,0-0.872,0.094-1.217,0.281c-0.345,0.187-0.611,0.457-0.798,0.811s-0.281,0.78-0.281,1.279v3.443H226.52z"/>
			<path fill="#2B2B2B" d="M237.613,78.843c-0.541,0-1.052-0.077-1.535-0.23c-0.482-0.154-0.861-0.348-1.136-0.581l0.399-0.698
				c0.266,0.199,0.607,0.372,1.023,0.518s0.853,0.219,1.311,0.219c0.624,0,1.073-0.098,1.347-0.294
				c0.274-0.195,0.412-0.455,0.412-0.779c0-0.241-0.077-0.431-0.231-0.567c-0.154-0.138-0.355-0.241-0.605-0.312
				c-0.25-0.07-0.528-0.131-0.836-0.181s-0.613-0.108-0.917-0.175s-0.58-0.164-0.83-0.293s-0.451-0.306-0.605-0.53
				c-0.154-0.225-0.231-0.524-0.231-0.898c0-0.357,0.1-0.678,0.299-0.961c0.2-0.282,0.493-0.505,0.88-0.667
				c0.387-0.163,0.858-0.244,1.416-0.244c0.424,0,0.849,0.057,1.272,0.169c0.424,0.112,0.774,0.26,1.048,0.442l-0.387,0.712
				c-0.292-0.2-0.604-0.344-0.936-0.431c-0.333-0.088-0.666-0.131-0.998-0.131c-0.591,0-1.025,0.102-1.304,0.306
				c-0.279,0.204-0.418,0.464-0.418,0.779c0,0.25,0.077,0.445,0.23,0.587s0.358,0.252,0.611,0.33
				c0.254,0.079,0.532,0.144,0.836,0.193c0.303,0.051,0.607,0.11,0.911,0.182c0.304,0.07,0.582,0.166,0.836,0.287
				c0.253,0.12,0.458,0.291,0.611,0.511c0.154,0.221,0.231,0.51,0.231,0.867c0,0.383-0.106,0.714-0.318,0.992
				c-0.212,0.279-0.52,0.495-0.923,0.649C238.675,78.766,238.186,78.843,237.613,78.843z"/>
			<path fill="#2B2B2B" d="M245.548,78.843c-0.558,0-1.044-0.104-1.46-0.312c-0.416-0.207-0.738-0.52-0.967-0.936
				c-0.229-0.416-0.343-0.936-0.343-1.56V72.23h0.886v3.706c0,0.698,0.173,1.225,0.518,1.578c0.345,0.354,0.83,0.53,1.454,0.53
				c0.457,0,0.854-0.094,1.191-0.28c0.337-0.188,0.595-0.46,0.773-0.817s0.269-0.786,0.269-1.285V72.23h0.886v6.551h-0.849v-1.797
				l0.137,0.324c-0.208,0.482-0.53,0.859-0.967,1.13S246.13,78.843,245.548,78.843z"/>
			<path fill="#2B2B2B" d="M252.123,78.781v-9.258h0.886v9.258H252.123z"/>
			<path fill="#2B2B2B" d="M255.355,72.966V72.23h4.055v0.736H255.355z M258.449,78.843c-0.616,0-1.09-0.166-1.422-0.499
				c-0.333-0.333-0.5-0.803-0.5-1.41v-6.151h0.886v6.102c0,0.383,0.098,0.678,0.293,0.886s0.476,0.312,0.842,0.312
				c0.391,0,0.715-0.112,0.973-0.337l0.312,0.636c-0.175,0.158-0.385,0.274-0.63,0.35C258.959,78.806,258.707,78.843,258.449,78.843
				z"/>
			<path fill="#2B2B2B" d="M264.189,78.843c-0.491,0-0.917-0.081-1.279-0.243s-0.638-0.387-0.83-0.674s-0.287-0.618-0.287-0.992
				c0-0.341,0.082-0.65,0.244-0.93c0.162-0.278,0.428-0.503,0.798-0.674c0.37-0.17,0.867-0.256,1.491-0.256h2.258v0.662h-2.233
				c-0.632,0-1.071,0.111-1.316,0.336c-0.246,0.225-0.368,0.504-0.368,0.837c0,0.374,0.146,0.673,0.437,0.897
				c0.291,0.225,0.699,0.337,1.223,0.337c0.499,0,0.929-0.114,1.292-0.343c0.362-0.229,0.625-0.56,0.792-0.992l0.2,0.611
				c-0.167,0.433-0.456,0.778-0.867,1.036S264.812,78.843,264.189,78.843z M266.447,78.781v-1.447l-0.038-0.237v-2.421
				c0-0.557-0.156-0.985-0.468-1.285c-0.312-0.299-0.776-0.448-1.391-0.448c-0.424,0-0.828,0.07-1.21,0.212
				c-0.383,0.142-0.707,0.328-0.973,0.562l-0.399-0.661c0.333-0.283,0.732-0.502,1.198-0.655c0.466-0.154,0.957-0.231,1.473-0.231
				c0.848,0,1.503,0.211,1.965,0.631c0.462,0.42,0.692,1.059,0.692,1.915v4.067H266.447z"/>
			<path fill="#2B2B2B" d="M270.602,78.781V72.23h0.848v1.797l-0.137-0.337c0.208-0.474,0.541-0.846,0.999-1.116
				c0.457-0.271,1.002-0.406,1.634-0.406c0.532,0,1,0.103,1.404,0.306c0.403,0.204,0.719,0.514,0.948,0.93
				c0.229,0.416,0.343,0.94,0.343,1.572v3.806h-0.886v-3.718c0-0.69-0.172-1.213-0.518-1.566s-0.83-0.53-1.454-0.53
				c-0.466,0-0.872,0.094-1.217,0.281c-0.345,0.187-0.611,0.457-0.798,0.811s-0.281,0.78-0.281,1.279v3.443H270.602z"/>
			<path fill="#2B2B2B" d="M278.911,72.966V72.23h4.055v0.736H278.911z M282.006,78.843c-0.616,0-1.09-0.166-1.422-0.499
				c-0.333-0.333-0.5-0.803-0.5-1.41v-6.151h0.886v6.102c0,0.383,0.098,0.678,0.293,0.886s0.476,0.312,0.842,0.312
				c0.391,0,0.715-0.112,0.973-0.337l0.312,0.636c-0.175,0.158-0.385,0.274-0.63,0.35C282.515,78.806,282.263,78.843,282.006,78.843
				z"/>
			<path fill="#2B2B2B" d="M287.658,78.843c-0.541,0-1.052-0.077-1.535-0.23c-0.482-0.154-0.861-0.348-1.136-0.581l0.399-0.698
				c0.266,0.199,0.607,0.372,1.023,0.518s0.853,0.219,1.311,0.219c0.624,0,1.073-0.098,1.347-0.294
				c0.274-0.195,0.412-0.455,0.412-0.779c0-0.241-0.077-0.431-0.231-0.567c-0.154-0.138-0.355-0.241-0.605-0.312
				c-0.25-0.07-0.528-0.131-0.836-0.181s-0.613-0.108-0.917-0.175s-0.58-0.164-0.83-0.293s-0.451-0.306-0.605-0.53
				c-0.154-0.225-0.231-0.524-0.231-0.898c0-0.357,0.1-0.678,0.299-0.961c0.2-0.282,0.493-0.505,0.88-0.667
				c0.387-0.163,0.858-0.244,1.416-0.244c0.424,0,0.849,0.057,1.272,0.169c0.424,0.112,0.774,0.26,1.048,0.442l-0.387,0.712
				c-0.292-0.2-0.604-0.344-0.936-0.431c-0.333-0.088-0.666-0.131-0.998-0.131c-0.591,0-1.025,0.102-1.304,0.306
				c-0.279,0.204-0.418,0.464-0.418,0.779c0,0.25,0.077,0.445,0.23,0.587s0.358,0.252,0.611,0.33
				c0.254,0.079,0.532,0.144,0.836,0.193c0.303,0.051,0.607,0.11,0.911,0.182c0.304,0.07,0.582,0.166,0.836,0.287
				c0.253,0.12,0.458,0.291,0.611,0.511c0.154,0.221,0.231,0.51,0.231,0.867c0,0.383-0.106,0.714-0.318,0.992
				c-0.212,0.279-0.52,0.495-0.923,0.649C288.721,78.766,288.232,78.843,287.658,78.843z"/>
		</g>
	</g>
</g>
</svg>
