<svg width="288" height="64" viewBox="0 0 288 64" fill="none" xmlns="http://www.w3.org/2000/svg">
<path d="M28.1492 54.3749C28.1492 54.6759 28.0282 54.9439 27.8312 55.1409C27.6362 55.3359 27.3652 55.4559 27.0672 55.4559H3.45016C2.85416 55.4559 2.36816 54.9729 2.36816 54.3739C2.36816 54.0759 2.48916 53.8069 2.68616 53.6099C2.88116 53.4149 3.15216 53.2949 3.45016 53.2949H27.0682C27.6642 53.2959 28.1492 53.7789 28.1492 54.3749Z" fill="#FE0100"/>
<path d="M30.52 58.7221V63.0251H0V58.7221C0 57.6081 0.902 56.7041 2.016 56.7041H28.502C29.615 56.7041 30.52 57.6081 30.52 58.7221Z" fill="#FE0100"/>
<path d="M9.44063 32.5821C9.83963 28.0331 9.86163 24.1201 9.84963 22.4241H9.08363C7.24063 22.4241 5.74963 20.9311 5.74963 19.0901C5.74963 18.8211 5.85763 18.5801 6.03263 18.4051C6.20763 18.2301 6.44863 18.1221 6.71763 18.1221H23.7996C24.3346 18.1221 24.7676 18.5561 24.7676 19.0901C24.7676 20.0091 24.3926 20.8451 23.7916 21.4481C23.1876 22.0491 22.3526 22.4241 21.4336 22.4241H20.6646C20.6526 24.1741 20.6766 28.2911 21.1156 33.0301C21.1946 33.8781 21.2856 34.7481 21.3916 35.6251C21.4036 35.7261 21.4166 35.8251 21.4286 35.9261C21.5466 36.8671 21.6826 37.8161 21.8406 38.7651C22.6666 43.7751 24.0636 48.7211 26.4196 51.7991H4.09863C7.43463 47.4341 8.84963 39.3141 9.44063 32.5821Z" fill="#FE0100"/>
<path d="M8.73145 51.7978C12.1644 45.3688 16.8064 40.0898 21.4294 35.9258C21.5474 36.8668 21.6834 37.8158 21.8414 38.7648C22.6664 43.7748 24.0644 48.7208 26.4204 51.7978H8.73145Z" fill="#F40000"/>
<path d="M6.96875 55.4569C7.28375 54.7229 7.61675 54.0029 7.96475 53.2959H27.0677C27.6637 53.2959 28.1497 53.7789 28.1497 54.3749C28.1497 54.6759 28.0287 54.9439 27.8317 55.1409C27.6367 55.3359 27.3657 55.4559 27.0677 55.4559L6.96875 55.4569Z" fill="#F40000"/>
<path d="M30.5198 58.7221V63.0251H4.46777C4.98477 60.8221 5.65777 58.7151 6.45677 56.7041H28.5018C29.6148 56.7041 30.5198 57.6081 30.5198 58.7221Z" fill="#F40000"/>
<path d="M26.4192 51.7976H11.9932C14.8102 46.5486 18.3782 42.2016 21.8402 38.7646C22.6662 43.7736 24.0642 48.7196 26.4192 51.7976Z" fill="#EF0000"/>
<path d="M27.0666 55.4569H10.2236C10.5386 54.7199 10.8716 54.0009 11.2216 53.2959H27.0666C27.6626 53.2959 28.1486 53.7789 28.1486 54.3749C28.1486 54.6759 28.0276 54.9439 27.8306 55.1409C27.6366 55.3359 27.3656 55.4569 27.0666 55.4569Z" fill="#EF0000"/>
<path d="M30.5198 58.7221V63.0251H7.71582C8.23282 60.8101 8.90882 58.7031 9.70182 56.7041H28.5018C29.6148 56.7041 30.5198 57.6081 30.5198 58.7221Z" fill="#EF0000"/>
<path d="M24.6471 14.9541H5.87109V15.8921H24.6471V14.9541Z" fill="#EF0000"/>
<path d="M27.0539 5.132L24.7619 13.836H5.75287L3.46387 5.132C5.63487 6.022 7.11587 7.897 7.11587 7.897L7.77587 7.308C8.10887 7.01 8.61887 7.039 8.91887 7.37C9.22687 7.713 9.18987 8.24 8.83987 8.538L8.27587 9.011C8.17987 9.092 8.16987 9.238 8.25387 9.331L9.90987 11.206C10.3879 11.748 11.2209 11.785 11.7459 11.287L12.4289 10.644C12.7539 10.334 12.9239 9.814 12.7739 9.382C12.6629 9.067 12.4339 8.808 12.1899 8.579C11.6849 8.106 11.2389 7.665 10.9179 7.041C10.6569 6.531 10.4919 5.976 10.4199 5.412C10.3679 5 10.3629 4.584 10.4099 4.172C10.4119 4.13 10.5129 3.711 10.4889 3.691C11.8909 4.933 12.9559 4.48 12.9559 4.48C13.0149 1.856 15.2579 0 15.2579 0C15.2579 0 17.5009 1.856 17.5599 4.48C17.5599 4.48 18.6269 4.933 20.0269 3.691C20.0049 3.711 20.1029 4.13 20.1079 4.172C20.1519 4.584 20.1499 5 20.0979 5.412C20.0269 5.976 19.8609 6.531 19.5999 7.041C19.2799 7.664 18.8339 8.106 18.3259 8.579C18.0819 8.808 17.8549 9.067 17.7439 9.382C17.5939 9.813 17.7639 10.333 18.0889 10.644L18.7689 11.287C19.2939 11.785 20.1269 11.748 20.6069 11.206L22.2629 9.331C22.3469 9.237 22.3339 9.092 22.2379 9.011L21.6759 8.538C21.3239 8.24 21.2869 7.712 21.5969 7.37C21.8949 7.04 22.4049 7.01 22.7399 7.308L23.3999 7.897C23.4019 7.897 24.8829 6.022 27.0539 5.132Z" fill="#EF0000"/>
<path d="M15.545 18.1211C15.444 18.6041 15.19 19.7331 14.754 21.2261C14.641 21.6031 14.52 22.0051 14.384 22.4241C13.423 25.4211 11.836 29.3661 9.441 32.5821C9.84 28.0331 9.862 24.1201 9.85 22.4241H9.084C7.241 22.4241 5.75 20.9311 5.75 19.0901C5.75 18.8211 5.858 18.5801 6.033 18.4051C6.208 18.2301 6.449 18.1221 6.718 18.1221L15.545 18.1211Z" fill="#F40000"/>
<path d="M151.715 31.5119V17.3779H153.209V31.5119H151.715Z" fill="black"/>
<path d="M157.227 31.5119V17.3779H158.459L164.92 28.4019H164.274L170.675 17.3779H171.906V31.5119H170.472V19.6189H170.815L164.919 29.7149H164.212L158.275 19.6189H158.659V31.5119H157.227Z" fill="black"/>
<path d="M175.925 31.5119V17.3779H177.157L183.618 28.4019H182.972L189.373 17.3779H190.604V31.5119H189.17V19.6189H189.513L183.617 29.7149H182.91L176.973 19.6189H177.357V31.5119H175.925Z" fill="black"/>
<path d="M194.622 31.5119V17.3779H196.116V31.5119H194.622Z" fill="black"/>
<path d="M206.333 31.6328C205.256 31.6328 204.264 31.4548 203.355 31.0978C202.446 30.7418 201.659 30.2398 200.993 29.5938C200.326 28.9478 199.808 28.1878 199.438 27.3118C199.068 26.4378 198.883 25.4818 198.883 24.4448C198.883 23.4088 199.068 22.4538 199.438 21.5778C199.808 20.7038 200.33 19.9428 201.003 19.2968C201.676 18.6508 202.467 18.1498 203.376 17.7928C204.285 17.4358 205.277 17.2578 206.355 17.2578C207.432 17.2578 208.417 17.4258 209.313 17.7628C210.208 18.0988 210.972 18.6108 211.605 19.2968L210.676 20.2458C210.083 19.6528 209.431 19.2288 208.718 18.9738C208.004 18.7188 207.237 18.5898 206.416 18.5898C205.541 18.5898 204.736 18.7358 204.003 19.0248C203.269 19.3138 202.63 19.7248 202.085 20.2558C201.54 20.7878 201.116 21.4068 200.813 22.1128C200.51 22.8198 200.359 23.5968 200.359 24.4448C200.359 25.2798 200.51 26.0538 200.813 26.7668C201.116 27.4808 201.54 28.1028 202.085 28.6348C202.63 29.1658 203.269 29.5768 204.003 29.8658C204.736 30.1548 205.534 30.2998 206.396 30.2998C207.204 30.2998 207.968 30.1788 208.688 29.9368C209.408 29.6948 210.071 29.2848 210.677 28.7058L211.525 29.8368C210.852 30.4298 210.064 30.8768 209.162 31.1798C208.26 31.4828 207.315 31.6328 206.333 31.6328ZM211.522 29.8358L210.088 29.6538V24.4438H211.522V29.8358Z" fill="black"/>
<path d="M215.156 31.5119V17.3779H220.446C222.236 17.3779 223.647 17.8059 224.676 18.6599C225.705 19.5139 226.22 20.7029 226.22 22.2229C226.22 23.2189 225.988 24.0769 225.523 24.7969C225.059 25.5179 224.396 26.0689 223.534 26.4529C222.672 26.8369 221.643 27.0279 220.445 27.0279H215.983L216.649 26.3409V31.5099H215.156V31.5119ZM216.651 26.4639L215.985 25.7569H220.407C221.82 25.7569 222.893 25.4469 223.627 24.8279C224.361 24.2089 224.728 23.3409 224.728 22.2239C224.728 21.0929 224.361 20.2179 223.627 19.5989C222.893 18.9799 221.82 18.6699 220.407 18.6699H215.985L216.651 17.9629V26.4639ZM224.808 31.5119L221.174 26.3829H222.789L226.444 31.5119H224.808Z" fill="black"/>
<path d="M226.908 31.5119L233.369 17.3779H234.843L241.304 31.5119H239.729L233.793 18.2459H234.398L228.462 31.5119H226.908ZM229.452 27.7359L229.896 26.5239H238.114L238.558 27.7359H229.452Z" fill="black"/>
<path d="M245.807 31.5119V18.6699H240.84V17.3779H252.269V18.6699H247.302V31.5119H245.807Z" fill="black"/>
<path d="M254.064 31.5119V17.3779H255.558V31.5119H254.064Z" fill="black"/>
<path d="M265.757 31.6328C264.694 31.6328 263.708 31.4548 262.799 31.0978C261.89 30.7418 261.103 30.2368 260.437 29.5828C259.77 28.9308 259.252 28.1698 258.882 27.3018C258.512 26.4338 258.327 25.4818 258.327 24.4448C258.327 23.4088 258.512 22.4568 258.882 21.5888C259.252 20.7208 259.771 19.9598 260.437 19.3068C261.103 18.6548 261.887 18.1498 262.789 17.7928C263.691 17.4358 264.68 17.2578 265.757 17.2578C266.82 17.2578 267.803 17.4368 268.705 17.7928C269.607 18.1488 270.391 18.6498 271.058 19.2968C271.724 19.9428 272.242 20.7038 272.613 21.5778C272.983 22.4538 273.168 23.4088 273.168 24.4448C273.168 25.4818 272.983 26.4378 272.613 27.3118C272.242 28.1878 271.724 28.9478 271.058 29.5938C270.391 30.2398 269.607 30.7408 268.705 31.0978C267.802 31.4548 266.82 31.6328 265.757 31.6328ZM265.757 30.2998C266.605 30.2998 267.389 30.1548 268.109 29.8658C268.829 29.5768 269.455 29.1658 269.987 28.6348C270.519 28.1028 270.933 27.4838 271.229 26.7768C271.525 26.0708 271.673 25.2938 271.673 24.4448C271.673 23.5968 271.525 22.8198 271.229 22.1128C270.933 21.4068 270.519 20.7878 269.987 20.2558C269.455 19.7248 268.829 19.3138 268.109 19.0248C267.389 18.7358 266.605 18.5898 265.757 18.5898C264.909 18.5898 264.121 18.7358 263.395 19.0248C262.668 19.3138 262.035 19.7248 261.497 20.2558C260.958 20.7878 260.541 21.4068 260.245 22.1128C259.949 22.8198 259.801 23.5968 259.801 24.4448C259.801 25.2798 259.949 26.0538 260.245 26.7668C260.541 27.4808 260.958 28.1028 261.497 28.6348C262.035 29.1658 262.668 29.5768 263.395 29.8658C264.121 30.1548 264.908 30.2998 265.757 30.2998Z" fill="black"/>
<path d="M275.933 31.5119V17.3779H277.165L286.917 29.6539H286.271V17.3779H287.745V31.5119H286.514L276.782 19.2359H277.428V31.5119H275.933Z" fill="black"/>
<path d="M151.715 31.5119V17.3779H153.209V31.5119H151.715Z" fill="url(#paint0_linear_51_4)"/>
<path d="M157.227 31.5119V17.3779H158.459L164.92 28.4019H164.274L170.675 17.3779H171.906V31.5119H170.472V19.6189H170.815L164.919 29.7149H164.212L158.275 19.6189H158.659V31.5119H157.227Z" fill="url(#paint1_linear_51_4)"/>
<path d="M175.925 31.5119V17.3779H177.157L183.618 28.4019H182.972L189.373 17.3779H190.604V31.5119H189.17V19.6189H189.513L183.617 29.7149H182.91L176.973 19.6189H177.357V31.5119H175.925Z" fill="url(#paint2_linear_51_4)"/>
<path d="M194.622 31.5119V17.3779H196.116V31.5119H194.622Z" fill="url(#paint3_linear_51_4)"/>
<path d="M206.333 31.6328C205.256 31.6328 204.264 31.4548 203.355 31.0978C202.446 30.7418 201.659 30.2398 200.993 29.5938C200.326 28.9478 199.808 28.1878 199.438 27.3118C199.068 26.4378 198.883 25.4818 198.883 24.4448C198.883 23.4088 199.068 22.4538 199.438 21.5778C199.808 20.7038 200.33 19.9428 201.003 19.2968C201.676 18.6508 202.467 18.1498 203.376 17.7928C204.285 17.4358 205.277 17.2578 206.355 17.2578C207.432 17.2578 208.417 17.4258 209.313 17.7628C210.208 18.0988 210.972 18.6108 211.605 19.2968L210.676 20.2458C210.083 19.6528 209.431 19.2288 208.718 18.9738C208.004 18.7188 207.237 18.5898 206.416 18.5898C205.541 18.5898 204.736 18.7358 204.003 19.0248C203.269 19.3138 202.63 19.7248 202.085 20.2558C201.54 20.7878 201.116 21.4068 200.813 22.1128C200.51 22.8198 200.359 23.5968 200.359 24.4448C200.359 25.2798 200.51 26.0538 200.813 26.7668C201.116 27.4808 201.54 28.1028 202.085 28.6348C202.63 29.1658 203.269 29.5768 204.003 29.8658C204.736 30.1548 205.534 30.2998 206.396 30.2998C207.204 30.2998 207.968 30.1788 208.688 29.9368C209.408 29.6948 210.071 29.2848 210.677 28.7058L211.525 29.8368C210.852 30.4298 210.064 30.8768 209.162 31.1798C208.26 31.4828 207.315 31.6328 206.333 31.6328ZM211.522 29.8358L210.088 29.6538V24.4438H211.522V29.8358Z" fill="url(#paint4_linear_51_4)"/>
<path d="M215.156 31.5119V17.3779H220.446C222.236 17.3779 223.647 17.8059 224.676 18.6599C225.705 19.5139 226.22 20.7029 226.22 22.2229C226.22 23.2189 225.988 24.0769 225.523 24.7969C225.059 25.5179 224.396 26.0689 223.534 26.4529C222.672 26.8369 221.643 27.0279 220.445 27.0279H215.983L216.649 26.3409V31.5099H215.156V31.5119ZM216.651 26.4639L215.985 25.7569H220.407C221.82 25.7569 222.893 25.4469 223.627 24.8279C224.361 24.2089 224.728 23.3409 224.728 22.2239C224.728 21.0929 224.361 20.2179 223.627 19.5989C222.893 18.9799 221.82 18.6699 220.407 18.6699H215.985L216.651 17.9629V26.4639ZM224.808 31.5119L221.174 26.3829H222.789L226.444 31.5119H224.808Z" fill="url(#paint5_linear_51_4)"/>
<path d="M226.908 31.5119L233.369 17.3779H234.843L241.304 31.5119H239.729L233.793 18.2459H234.398L228.462 31.5119H226.908ZM229.452 27.7359L229.896 26.5239H238.114L238.558 27.7359H229.452Z" fill="url(#paint6_linear_51_4)"/>
<path d="M245.807 31.5119V18.6699H240.84V17.3779H252.269V18.6699H247.302V31.5119H245.807Z" fill="url(#paint7_linear_51_4)"/>
<path d="M254.064 31.5119V17.3779H255.558V31.5119H254.064Z" fill="url(#paint8_linear_51_4)"/>
<path d="M265.757 31.6328C264.694 31.6328 263.708 31.4548 262.799 31.0978C261.89 30.7418 261.103 30.2368 260.437 29.5828C259.77 28.9308 259.252 28.1698 258.882 27.3018C258.512 26.4338 258.327 25.4818 258.327 24.4448C258.327 23.4088 258.512 22.4568 258.882 21.5888C259.252 20.7208 259.771 19.9598 260.437 19.3068C261.103 18.6548 261.887 18.1498 262.789 17.7928C263.691 17.4358 264.68 17.2578 265.757 17.2578C266.82 17.2578 267.803 17.4368 268.705 17.7928C269.607 18.1488 270.391 18.6498 271.058 19.2968C271.724 19.9428 272.242 20.7038 272.613 21.5778C272.983 22.4538 273.168 23.4088 273.168 24.4448C273.168 25.4818 272.983 26.4378 272.613 27.3118C272.242 28.1878 271.724 28.9478 271.058 29.5938C270.391 30.2398 269.607 30.7408 268.705 31.0978C267.802 31.4548 266.82 31.6328 265.757 31.6328ZM265.757 30.2998C266.605 30.2998 267.389 30.1548 268.109 29.8658C268.829 29.5768 269.455 29.1658 269.987 28.6348C270.519 28.1028 270.933 27.4838 271.229 26.7768C271.525 26.0708 271.673 25.2938 271.673 24.4448C271.673 23.5968 271.525 22.8198 271.229 22.1128C270.933 21.4068 270.519 20.7878 269.987 20.2558C269.455 19.7248 268.829 19.3138 268.109 19.0248C267.389 18.7358 266.605 18.5898 265.757 18.5898C264.909 18.5898 264.121 18.7358 263.395 19.0248C262.668 19.3138 262.035 19.7248 261.497 20.2558C260.958 20.7878 260.541 21.4068 260.245 22.1128C259.949 22.8198 259.801 23.5968 259.801 24.4448C259.801 25.2798 259.949 26.0538 260.245 26.7668C260.541 27.4808 260.958 28.1028 261.497 28.6348C262.035 29.1658 262.668 29.5768 263.395 29.8658C264.121 30.1548 264.908 30.2998 265.757 30.2998Z" fill="url(#paint9_linear_51_4)"/>
<path d="M275.933 31.5119V17.3779H277.165L286.917 29.6539H286.271V17.3779H287.745V31.5119H286.514L276.782 19.2359H277.428V31.5119H275.933Z" fill="url(#paint10_linear_51_4)"/>
<path d="M66.1249 31.5743C65.7119 31.4623 65.3729 31.2243 65.1049 30.9093C64.7009 30.4323 64.3169 29.9353 63.9499 29.4283C62.8929 27.9743 62.0389 26.3713 60.7569 25.0613C60.7729 25.0543 60.7909 25.0433 60.8099 25.0403C61.5559 24.9063 62.2199 24.5903 62.7769 24.0843C63.7389 23.2133 64.1009 22.0943 64.0129 20.8283C63.9039 19.2423 63.0369 18.1273 61.6479 17.6103C60.8309 17.3063 59.9729 17.1833 59.1029 17.1763C57.0709 17.1623 55.0409 17.1593 53.0089 17.1543C52.9419 17.1543 52.8739 17.1843 52.7909 17.2033C52.8229 17.2483 52.8299 17.2713 52.8469 17.2803C53.4529 17.6243 53.5989 18.1903 53.5989 18.8263C53.5989 22.3213 53.5999 25.8163 53.5969 29.3103C53.5969 29.5253 53.5849 29.7413 53.5559 29.9543C53.4689 30.5723 53.3109 31.1583 52.7589 31.5463C52.7419 31.5593 52.7369 31.5893 52.7109 31.6453H57.3489C57.3399 31.6113 57.3399 31.5943 57.3329 31.5853C57.3099 31.5593 57.2869 31.5333 57.2589 31.5133C56.9899 31.3203 56.8269 31.0513 56.7539 30.7433C56.6639 30.3663 56.5679 29.9793 56.5609 29.5953C56.5409 28.2943 56.5579 26.9923 56.5689 25.6913C56.5699 25.6443 56.6489 25.5583 56.6919 25.5573C57.1039 25.5473 57.5159 25.5463 57.9269 25.5603C58.0029 25.5623 58.1029 25.6183 58.1469 25.6803C58.5789 26.3033 59.0049 26.9323 59.4269 27.5623C60.2479 28.7883 61.0769 30.0093 61.7649 31.3183C61.8899 31.5583 62.0319 31.6683 62.3259 31.6643C63.5399 31.6523 64.7549 31.6763 65.9689 31.6843C66.0389 31.6843 66.1109 31.6703 66.2239 31.6573C66.1649 31.6063 66.1479 31.5803 66.1249 31.5743ZM58.4979 24.2363C57.9159 24.2853 57.3269 24.2573 56.7419 24.2673C56.6049 24.2693 56.5449 24.2273 56.5459 24.0733C56.5529 23.1553 56.5499 22.2383 56.5499 21.3193H56.5369C56.5369 20.3943 56.5379 19.4693 56.5349 18.5443C56.5349 18.4423 56.5599 18.3883 56.6749 18.3903C57.3499 18.4033 58.0309 18.3653 58.6999 18.4353C59.8379 18.5553 60.5839 19.2363 60.8559 20.3453C61.0659 21.2003 61.0099 22.0373 60.6079 22.8413C60.1689 23.7153 59.4429 24.1573 58.4979 24.2363Z" fill="#2B2B2B"/>
<path d="M105.042 24.5538C104.927 24.6498 104.865 24.7068 104.797 24.7578C104.491 24.9898 104.335 25.2658 104.342 25.6788C104.37 27.3078 104.362 28.9368 104.357 30.5658C104.357 30.6448 104.278 30.7608 104.205 30.7958C103.153 31.2988 102.037 31.5948 100.887 31.7718C99.7289 31.9508 98.5689 31.9658 97.4039 31.8178C96.1439 31.6578 94.9739 31.2528 93.9219 30.5458C92.6059 29.6608 91.7139 28.4498 91.2929 26.9218C90.9069 25.5198 90.8179 24.0858 91.1359 22.6648C91.7539 19.8998 93.4169 18.0448 96.1699 17.2618C98.2899 16.6578 100.42 16.7578 102.524 17.4008C102.809 17.4878 103.077 17.6288 103.356 17.7378C103.493 17.7918 103.541 17.8788 103.545 18.0238C103.564 18.6918 103.592 19.3588 103.62 20.0278C103.625 20.1398 103.64 20.2508 103.651 20.3618C103.635 20.3688 103.618 20.3748 103.601 20.3818C103.562 20.3308 103.518 20.2828 103.482 20.2298C102.744 19.1438 101.72 18.4738 100.441 18.2178C98.9379 17.9158 97.5309 18.1308 96.3409 19.1738C95.5669 19.8518 95.0629 20.7148 94.7799 21.6988C94.3519 23.1888 94.3279 24.7028 94.5949 26.2238C94.8189 27.5058 95.2949 28.6638 96.2409 29.5988C97.1659 30.5128 98.2969 30.8618 99.5629 30.7788C100.094 30.7438 100.614 30.5858 101.141 30.4878C101.294 30.4588 101.348 30.3678 101.344 30.2228C101.335 29.9728 101.324 29.7218 101.324 29.4718C101.321 28.2678 101.306 27.0618 101.331 25.8588C101.34 25.4318 101.169 25.1428 100.854 24.8998C100.73 24.8048 100.608 24.7058 100.486 24.6088C100.493 24.5908 100.499 24.5708 100.507 24.5528H105.042V24.5538Z" fill="#2B2B2B"/>
<path d="M91.673 31.6103C91.671 31.6283 91.669 31.6473 91.666 31.6653C91.582 31.6733 91.498 31.6873 91.414 31.6873C90.094 31.6833 88.775 31.6803 87.456 31.6683C87.385 31.6673 87.274 31.6033 87.252 31.5433C86.741 30.1763 85.831 29.0443 85.054 27.8343C84.672 27.2393 84.258 26.6643 83.843 26.0593C83.808 26.0983 83.753 26.1463 83.715 26.2033C82.945 27.4133 82.171 28.6213 81.414 29.8393C81.198 30.1863 80.994 30.5573 81.037 30.9903C81.057 31.1983 81.131 31.4013 81.189 31.6373H77.469C77.465 31.6243 77.461 31.6103 77.457 31.5973C77.612 31.5143 77.771 31.4373 77.922 31.3473C78.587 30.9523 79.048 30.3563 79.476 29.7353C80.582 28.1293 81.683 26.5203 82.788 24.9143C82.854 24.8183 82.862 24.7573 82.773 24.6653C82.663 24.5513 82.579 24.4123 82.49 24.2793C81.325 22.5363 80.163 20.7933 78.998 19.0513C78.798 18.7513 78.596 18.4483 78.375 18.1623C78.108 17.8163 77.781 17.5373 77.373 17.3613C77.314 17.3363 77.263 17.2923 77.208 17.2563C77.215 17.2343 77.221 17.2123 77.228 17.1903C77.3 17.1853 77.372 17.1773 77.446 17.1773C78.793 17.1693 80.141 17.1653 81.488 17.1543C81.642 17.1533 81.749 17.1913 81.784 17.3493C81.954 18.1373 82.403 18.7883 82.835 19.4443C83.403 20.3043 83.988 21.1513 84.567 22.0033C84.579 22.0193 84.597 22.0323 84.645 22.0773C84.665 22.0403 84.684 22.0043 84.705 21.9693C85.413 20.8123 86.12 19.6543 86.826 18.4963C86.888 18.3953 86.934 18.2853 86.982 18.1773C87.098 17.9213 87.081 17.6793 86.907 17.4513C86.859 17.3873 86.828 17.3113 86.767 17.2043H90.216C90.156 17.2613 90.126 17.3073 90.083 17.3283C89.528 17.5923 89.134 18.0303 88.796 18.5233C87.766 20.0293 86.743 21.5393 85.717 23.0463C85.516 23.3433 85.511 23.3443 85.71 23.6453C87.174 25.8563 88.637 28.0683 90.108 30.2753C90.451 30.7893 90.851 31.2523 91.439 31.5083C91.516 31.5433 91.595 31.5773 91.673 31.6103Z" fill="#2B2B2B"/>
<path d="M144.178 29.2454C144.159 29.9684 144.129 30.6914 144.121 31.4154C144.119 31.6174 144.057 31.6744 143.858 31.6724C141.876 31.6584 139.893 31.6504 137.911 31.6424C136.599 31.6374 135.286 31.6354 133.974 31.6314C133.908 31.6314 133.841 31.6254 133.705 31.6184C133.817 31.5224 133.878 31.4624 133.946 31.4104C134.438 31.0344 134.652 30.5204 134.657 29.9214C134.668 28.6274 134.663 27.3324 134.663 26.0374C134.663 23.6164 134.665 21.1934 134.66 18.7714C134.659 18.2744 134.575 17.7984 134.177 17.4424C134.087 17.3614 133.98 17.2984 133.831 17.1924C133.938 17.1714 133.992 17.1524 134.046 17.1514C135.659 17.1514 137.27 17.1544 138.882 17.1544C140.32 17.1544 141.758 17.1524 143.195 17.1484C143.3 17.1484 143.354 17.1784 143.355 17.2874C143.36 17.9904 143.367 18.6934 143.371 19.3964C143.371 19.4194 143.352 19.4434 143.332 19.4884C143.239 19.3934 143.162 19.3074 143.077 19.2294C142.624 18.8114 142.062 18.6164 141.472 18.5284C140.93 18.4474 140.377 18.4164 139.828 18.3984C139.144 18.3774 138.46 18.3914 137.776 18.3904C137.736 18.3904 137.695 18.3984 137.631 18.4034C137.631 18.4794 137.63 18.5464 137.631 18.6134C137.632 20.2074 137.635 21.8014 137.634 23.3954C137.634 23.5054 137.636 23.5844 137.781 23.5824C138.66 23.5674 139.545 23.6094 140.417 23.5274C141.003 23.4714 141.574 23.2434 142.152 23.0904C142.237 23.0684 142.32 23.0374 142.415 23.0064V25.4614C142.353 25.4284 142.308 25.4134 142.272 25.3854C141.719 24.9534 141.069 24.8074 140.391 24.7914C139.533 24.7714 138.674 24.7834 137.815 24.7774C137.672 24.7754 137.624 24.8214 137.625 24.9714C137.631 26.7114 137.632 28.4524 137.629 30.1914C137.628 30.3204 137.652 30.3834 137.797 30.3814C138.851 30.3674 139.907 30.3924 140.958 30.3374C141.873 30.2894 142.739 30.0084 143.531 29.5394C143.753 29.4074 143.942 29.2194 144.166 29.0404C144.171 29.1144 144.18 29.1794 144.178 29.2454Z" fill="#2B2B2B"/>
<path d="M77.2066 29.0224C77.1856 29.3704 77.1626 29.6824 77.1476 29.9954C77.1256 30.4894 77.1016 30.9824 77.0926 31.4764C77.0906 31.6274 77.0446 31.6624 76.8986 31.6614C73.6106 31.6494 70.3226 31.6434 67.0346 31.6354H66.7666C66.8276 31.5544 66.8496 31.5024 66.8896 31.4744C67.4886 31.0634 67.6586 30.4434 67.6596 29.7784C67.6636 26.0684 67.6546 22.3584 67.6396 18.6484C67.6366 18.1184 67.4556 17.6514 66.9686 17.3564C66.9096 17.3204 66.8416 17.3004 66.7776 17.2724C66.8006 17.2374 66.8236 17.2034 66.8456 17.1674C66.9096 17.1604 66.9716 17.1484 67.0356 17.1484C70.0576 17.1504 73.0806 17.1564 76.1026 17.1534C76.3056 17.1534 76.3946 17.2014 76.3916 17.4184C76.3826 18.0904 76.3886 18.7624 76.3886 19.4664C76.3186 19.4184 76.2696 19.3944 76.2326 19.3574C75.7206 18.8434 75.0656 18.6484 74.3786 18.5174C73.3746 18.3264 72.3606 18.4124 71.3506 18.3964C71.1146 18.3924 70.8786 18.3954 70.6166 18.3954V23.5844C72.2226 23.5344 73.8676 23.7904 75.4186 22.9674V25.5174C74.9386 25.1224 74.4046 24.9234 73.8216 24.8484C73.6276 24.8244 73.4336 24.7924 73.2396 24.7914C72.4236 24.7834 71.6066 24.7874 70.7906 24.7844C70.6586 24.7834 70.5866 24.8124 70.5876 24.9714C70.5926 25.7584 70.5856 26.5434 70.5846 27.3304C70.5836 28.3384 70.5836 29.3454 70.5836 30.3994C71.0116 30.3994 71.3946 30.4094 71.7776 30.3974C72.6486 30.3724 73.5256 30.3894 74.3886 30.2924C75.2526 30.1954 76.0666 29.8834 76.7936 29.3874C76.9336 29.2914 77.0516 29.1614 77.2066 29.0224Z" fill="#2B2B2B"/>
<path d="M133.129 19.6374C133.129 19.6484 133.114 19.6584 133.105 19.6684C131.77 18.4414 130.113 18.4304 128.435 18.4334C128.43 18.4954 128.422 18.5484 128.422 18.6014C128.415 22.1804 128.404 25.7584 128.409 29.3364C128.41 29.7704 128.481 30.2074 128.56 30.6374C128.624 30.9874 128.811 31.2834 129.109 31.4984C129.137 31.5184 129.163 31.5424 129.187 31.5674C129.195 31.5754 129.194 31.5914 129.204 31.6324H124.45C124.515 31.5584 124.539 31.5134 124.576 31.4914C125.019 31.2294 125.194 30.7984 125.275 30.3314C125.347 29.9084 125.399 29.4774 125.401 29.0494C125.414 25.5904 125.412 22.1304 125.414 18.6714V18.3504C124.68 18.4074 123.978 18.4524 123.279 18.5184C122.583 18.5834 121.925 18.7904 121.336 19.1724C121.113 19.3164 120.919 19.5094 120.696 19.6934C120.688 19.6374 120.677 19.5944 120.677 19.5504C120.678 18.8194 120.683 18.0884 120.681 17.3584C120.68 17.2334 120.702 17.1644 120.85 17.1644C124.424 17.1624 127.998 17.1564 131.572 17.1524C132.033 17.1514 132.493 17.1534 132.955 17.1504C133.05 17.1504 133.116 17.1624 133.117 17.2824C133.119 18.0644 133.125 18.8504 133.129 19.6374Z" fill="#2B2B2B"/>
<path d="M110.59 17.1533H113.989L119.737 31.3223C119.737 31.3223 120.087 32.0473 120.612 32.1473H116.464L111.466 17.5033L110.59 17.1533Z" fill="#2B2B2B"/>
<path d="M104.867 32.1459C104.867 32.1459 105.967 31.8709 106.416 30.9959L111.055 17.3379L112.914 17.5269L108.191 31.3709C108.191 31.3709 108.116 32.0209 108.766 32.1459H104.867Z" fill="#2B2B2B"/>
<path d="M116.537 26.1748H109.165V27.5988H116.537V26.1748Z" fill="#2B2B2B"/>
<path d="M53.1348 38.3907C128.061 37.9317 212.112 37.9277 287.038 38.3907C212.112 38.8537 128.061 38.8497 53.1348 38.3907Z" fill="#2B2B2B"/>
<path d="M57.9283 54.0314C57.2713 54.0314 56.6643 53.9214 56.1063 53.7004C55.5493 53.4794 55.0663 53.1704 54.6593 52.7704C54.2523 52.3704 53.9333 51.9014 53.7043 51.3604C53.4753 50.8204 53.3613 50.2294 53.3613 49.5894C53.3613 48.9494 53.4753 48.3594 53.7043 47.8184C53.9333 47.2774 54.2533 46.8074 54.6653 46.4084C55.0773 46.0094 55.5613 45.6994 56.1193 45.4784C56.6763 45.2584 57.2843 45.1484 57.9413 45.1484C58.5733 45.1484 59.1683 45.2534 59.7253 45.4664C60.2823 45.6784 60.7523 45.9964 61.1353 46.4204L60.5493 47.0064C60.1923 46.6414 59.7963 46.3764 59.3643 46.2144C58.9313 46.0524 58.4663 45.9714 57.9673 45.9714C57.4433 45.9714 56.9563 46.0614 56.5073 46.2404C56.0583 46.4194 55.6673 46.6734 55.3343 47.0014C55.0013 47.3304 54.7413 47.7124 54.5543 48.1484C54.3673 48.5864 54.2733 49.0664 54.2733 49.5894C54.2733 50.1134 54.3673 50.5944 54.5543 51.0304C54.7413 51.4664 55.0013 51.8494 55.3343 52.1774C55.6673 52.5064 56.0583 52.7604 56.5073 52.9394C56.9563 53.1184 57.4433 53.2074 57.9673 53.2074C58.4663 53.2074 58.9323 53.1244 59.3643 52.9584C59.7963 52.7924 60.1923 52.5254 60.5493 52.1594L61.1353 52.7464C60.7533 53.1704 60.2823 53.4904 59.7253 53.7064C59.1683 53.9234 58.5693 54.0314 57.9283 54.0314Z" fill="#2B2B2B"/>
<path d="M65.5405 54.0178C65.0495 54.0178 64.6235 53.9368 64.2615 53.7748C63.8995 53.6128 63.6235 53.3878 63.4315 53.1008C63.2395 52.8138 63.1445 52.4828 63.1445 52.1088C63.1445 51.7678 63.2265 51.4588 63.3885 51.1788C63.5505 50.9008 63.8165 50.6758 64.1865 50.5048C64.5565 50.3348 65.0535 50.2488 65.6775 50.2488H67.9355V50.9108H65.7025C65.0705 50.9108 64.6315 51.0218 64.3865 51.2468C64.1405 51.4718 64.0185 51.7508 64.0185 52.0838C64.0185 52.4578 64.1645 52.7568 64.4555 52.9808C64.7465 53.2058 65.1545 53.3178 65.6785 53.3178C66.1775 53.3178 66.6075 53.2038 66.9705 52.9748C67.3325 52.7458 67.5955 52.4148 67.7625 51.9828L67.9625 52.5938C67.7955 53.0268 67.5065 53.3718 67.0955 53.6298C66.6845 53.8878 66.1635 54.0178 65.5405 54.0178ZM67.7985 53.9558V52.5088L67.7605 52.2718V49.8508C67.7605 49.2938 67.6045 48.8658 67.2925 48.5658C66.9805 48.2668 66.5165 48.1178 65.9015 48.1178C65.4775 48.1178 65.0735 48.1878 64.6915 48.3298C64.3085 48.4718 63.9845 48.6578 63.7185 48.8918L63.3195 48.2288C63.6525 47.9458 64.0515 47.7268 64.5175 47.5738C64.9835 47.4198 65.4745 47.3428 65.9905 47.3428C66.8385 47.3428 67.4935 47.5538 67.9555 47.9738C68.4175 48.3938 68.6475 49.0328 68.6475 49.8888V53.9558H67.7985Z" fill="#2B2B2B"/>
<path d="M71.9531 53.9558V47.4048H72.8011V49.2018L72.6641 48.8648C72.8721 48.3908 73.2051 48.0188 73.6631 47.7488C74.1201 47.4778 74.6651 47.3428 75.2971 47.3428C75.8291 47.3428 76.2971 47.4458 76.7011 47.6488C77.1041 47.8528 77.4201 48.1628 77.6491 48.5788C77.8781 48.9948 77.9921 49.5188 77.9921 50.1508V53.9568H77.1061V50.2388C77.1061 49.5488 76.9341 49.0258 76.5881 48.6728C76.2421 48.3198 75.7581 48.1428 75.1341 48.1428C74.6681 48.1428 74.2621 48.2368 73.9171 48.4238C73.5721 48.6108 73.3061 48.8808 73.1191 49.2348C72.9321 49.5888 72.8381 50.0148 72.8381 50.5138V53.9568L71.9531 53.9558Z" fill="#2B2B2B"/>
<path d="M83.1333 54.0187C82.6423 54.0187 82.2163 53.9377 81.8543 53.7757C81.4923 53.6137 81.2163 53.3887 81.0243 53.1017C80.8323 52.8147 80.7373 52.4837 80.7373 52.1097C80.7373 51.7687 80.8193 51.4597 80.9813 51.1797C81.1433 50.9017 81.4093 50.6767 81.7793 50.5057C82.1493 50.3357 82.6463 50.2497 83.2703 50.2497H85.5283V50.9117H83.2953C82.6633 50.9117 82.2243 51.0227 81.9793 51.2477C81.7333 51.4727 81.6113 51.7517 81.6113 52.0847C81.6113 52.4587 81.7573 52.7577 82.0483 52.9817C82.3393 53.2067 82.7473 53.3187 83.2713 53.3187C83.7703 53.3187 84.2003 53.2047 84.5633 52.9757C84.9253 52.7467 85.1883 52.4157 85.3553 51.9837L85.5553 52.5947C85.3883 53.0277 85.0993 53.3727 84.6883 53.6307C84.2773 53.8887 83.7563 54.0187 83.1333 54.0187ZM85.3913 53.9567V52.5097L85.3533 52.2727V49.8517C85.3533 49.2947 85.1973 48.8667 84.8853 48.5667C84.5733 48.2677 84.1093 48.1187 83.4943 48.1187C83.0703 48.1187 82.6663 48.1887 82.2843 48.3307C81.9013 48.4727 81.5773 48.6587 81.3113 48.8927L80.9123 48.2317C81.2453 47.9487 81.6443 47.7297 82.1103 47.5767C82.5763 47.4227 83.0673 47.3457 83.5833 47.3457C84.4313 47.3457 85.0863 47.5567 85.5483 47.9767C86.0103 48.3967 86.2403 49.0357 86.2403 49.8917V53.9587H85.3913V53.9567Z" fill="#2B2B2B"/>
<path d="M92.1538 54.0182C91.5298 54.0182 90.9708 53.8762 90.4758 53.5932C89.9808 53.3112 89.5918 52.9182 89.3088 52.4142C89.0258 51.9112 88.8848 51.3312 88.8848 50.6742C88.8848 50.0082 89.0268 49.4262 89.3088 48.9272C89.5908 48.4282 89.9808 48.0392 90.4758 47.7602C90.9708 47.4822 91.5308 47.3422 92.1538 47.3422C92.7278 47.3422 93.2418 47.4722 93.6948 47.7292C94.1488 47.9882 94.5098 48.3642 94.7798 48.8592C95.0508 49.3542 95.1858 49.9592 95.1858 50.6742C95.1858 51.3812 95.0528 51.9842 94.7868 52.4832C94.5208 52.9822 94.1608 53.3632 93.7078 53.6252C93.2538 53.8882 92.7368 54.0182 92.1538 54.0182ZM92.2168 53.2322C92.6828 53.2322 93.1008 53.1262 93.4708 52.9142C93.8408 52.7022 94.1328 52.4022 94.3448 52.0162C94.5568 51.6302 94.6628 51.1822 94.6628 50.6752C94.6628 50.1592 94.5568 49.7102 94.3448 49.3272C94.1328 48.9442 93.8418 48.6472 93.4708 48.4342C93.1008 48.2222 92.6828 48.1172 92.2168 48.1172C91.7588 48.1172 91.3478 48.2222 90.9818 48.4342C90.6158 48.6472 90.3248 48.9442 90.1088 49.3272C89.8918 49.7102 89.7838 50.1592 89.7838 50.6752C89.7838 51.1822 89.8918 51.6292 90.1088 52.0162C90.3248 52.4032 90.6158 52.7032 90.9818 52.9142C91.3468 53.1262 91.7588 53.2322 92.2168 53.2322ZM94.6868 53.9562V51.9842L94.7738 50.6622L94.6488 49.3402V44.6982H95.5348V53.9562H94.6868Z" fill="#2B2B2B"/>
<path d="M100.75 54.0187C100.259 54.0187 99.8335 53.9377 99.4715 53.7757C99.1095 53.6137 98.8335 53.3887 98.6415 53.1017C98.4495 52.8147 98.3545 52.4837 98.3545 52.1097C98.3545 51.7687 98.4365 51.4597 98.5985 51.1797C98.7605 50.9017 99.0265 50.6767 99.3965 50.5057C99.7665 50.3357 100.263 50.2497 100.887 50.2497H103.145V50.9117H100.912C100.28 50.9117 99.8415 51.0227 99.5965 51.2477C99.3505 51.4727 99.2285 51.7517 99.2285 52.0847C99.2285 52.4587 99.3745 52.7577 99.6655 52.9817C99.9565 53.2067 100.364 53.3187 100.888 53.3187C101.387 53.3187 101.817 53.2047 102.18 52.9757C102.542 52.7467 102.805 52.4157 102.972 51.9837L103.172 52.5947C103.005 53.0277 102.716 53.3727 102.305 53.6307C101.894 53.8887 101.374 54.0187 100.75 54.0187ZM103.009 53.9567V52.5097L102.971 52.2727V49.8517C102.971 49.2947 102.815 48.8667 102.503 48.5667C102.191 48.2677 101.727 48.1187 101.112 48.1187C100.688 48.1187 100.284 48.1887 99.9025 48.3307C99.5195 48.4727 99.1955 48.6587 98.9295 48.8927L98.5305 48.2317C98.8635 47.9487 99.2625 47.7297 99.7285 47.5767C100.194 47.4227 100.685 47.3457 101.201 47.3457C102.049 47.3457 102.704 47.5567 103.166 47.9767C103.628 48.3967 103.858 49.0357 103.858 49.8917V53.9587H103.009V53.9567Z" fill="#2B2B2B"/>
<path d="M111.519 53.9567V45.2227H112.442V53.9567H111.519Z" fill="#2B2B2B"/>
<path d="M115.997 53.9558V47.4048H116.845V49.1768L116.708 48.8648C116.908 48.3908 117.23 48.0188 117.675 47.7488C118.12 47.4778 118.646 47.3428 119.253 47.3428C119.894 47.3428 120.439 47.5028 120.888 47.8228C121.337 48.1428 121.628 48.6238 121.761 49.2638L121.412 49.1258C121.603 48.5938 121.942 48.1638 122.429 47.8348C122.916 47.5068 123.5 47.3418 124.182 47.3418C124.714 47.3418 125.178 47.4448 125.573 47.6478C125.968 47.8518 126.276 48.1618 126.496 48.5778C126.716 48.9938 126.827 49.5178 126.827 50.1498V53.9558H125.941V50.2378C125.941 49.5478 125.776 49.0248 125.448 48.6718C125.12 48.3188 124.656 48.1418 124.057 48.1418C123.608 48.1418 123.219 48.2358 122.89 48.4228C122.561 48.6098 122.307 48.8798 122.129 49.2338C121.951 49.5878 121.861 50.0138 121.861 50.5128V53.9558H120.975V50.2378C120.975 49.5478 120.808 49.0248 120.475 48.6718C120.142 48.3178 119.677 48.1418 119.078 48.1418C118.637 48.1418 118.25 48.2358 117.918 48.4228C117.585 48.6098 117.33 48.8798 117.15 49.2338C116.971 49.5878 116.882 50.0138 116.882 50.5128V53.9558H115.997Z" fill="#2B2B2B"/>
<path d="M130.135 53.9558V47.4048H130.983V49.1768L130.846 48.8648C131.046 48.3908 131.368 48.0188 131.813 47.7488C132.258 47.4778 132.784 47.3428 133.391 47.3428C134.032 47.3428 134.577 47.5028 135.026 47.8228C135.475 48.1428 135.766 48.6238 135.899 49.2638L135.55 49.1258C135.741 48.5938 136.08 48.1638 136.567 47.8348C137.054 47.5068 137.638 47.3418 138.32 47.3418C138.852 47.3418 139.316 47.4448 139.711 47.6478C140.106 47.8518 140.414 48.1618 140.634 48.5778C140.854 48.9938 140.965 49.5178 140.965 50.1498V53.9558H140.079V50.2378C140.079 49.5478 139.914 49.0248 139.586 48.6718C139.258 48.3188 138.794 48.1418 138.195 48.1418C137.746 48.1418 137.357 48.2358 137.028 48.4228C136.699 48.6098 136.445 48.8798 136.267 49.2338C136.089 49.5878 135.999 50.0138 135.999 50.5128V53.9558H135.113V50.2378C135.113 49.5478 134.946 49.0248 134.613 48.6718C134.28 48.3178 133.815 48.1418 133.216 48.1418C132.775 48.1418 132.388 48.2358 132.056 48.4228C131.723 48.6098 131.468 48.8798 131.288 49.2338C131.109 49.5878 131.02 50.0138 131.02 50.5128V53.9558H130.135Z" fill="#2B2B2B"/>
<path d="M144.72 45.9582C144.537 45.9582 144.383 45.8962 144.258 45.7712C144.133 45.6462 144.071 45.4962 144.071 45.3222C144.071 45.1472 144.133 45.0002 144.258 44.8792C144.383 44.7592 144.537 44.6982 144.72 44.6982C144.903 44.6982 145.057 44.7562 145.181 44.8732C145.306 44.9892 145.368 45.1352 145.368 45.3102C145.368 45.4932 145.308 45.6472 145.187 45.7722C145.067 45.8952 144.911 45.9582 144.72 45.9582ZM144.271 53.9562V47.4052H145.157V53.9562H144.271Z" fill="#2B2B2B"/>
<path d="M151.158 53.7067C150.534 53.7067 149.972 53.5717 149.473 53.3017C148.974 53.0317 148.581 52.6557 148.294 52.1727C148.007 51.6897 147.863 51.1367 147.863 50.5137C147.863 49.8897 148.007 49.3387 148.294 48.8607C148.581 48.3827 148.974 48.0097 149.473 47.7437C149.972 47.4777 150.534 47.3447 151.158 47.3447C151.74 47.3447 152.264 47.4657 152.73 47.7067C153.196 47.9477 153.566 48.3057 153.84 48.7797C154.115 49.2537 154.252 49.8317 154.252 50.5137C154.252 51.1957 154.115 51.7737 153.84 52.2477C153.566 52.7217 153.195 53.0837 152.73 53.3327C152.264 53.5827 151.74 53.7067 151.158 53.7067ZM151.321 56.4397C150.722 56.4397 150.148 56.3517 149.599 56.1767C149.05 56.0017 148.605 55.7527 148.264 55.4287L148.713 54.7547C149.021 55.0287 149.401 55.2467 149.855 55.4087C150.308 55.5717 150.789 55.6527 151.296 55.6527C152.128 55.6527 152.739 55.4597 153.13 55.0727C153.521 54.6847 153.716 54.0847 153.716 53.2687V51.6347L153.841 50.5117L153.754 49.3887V47.4057H154.602V53.1577C154.602 54.2897 154.326 55.1187 153.772 55.6467C153.218 56.1747 152.402 56.4397 151.321 56.4397ZM151.245 52.9217C151.727 52.9217 152.156 52.8187 152.53 52.6157C152.905 52.4117 153.199 52.1287 153.416 51.7667C153.632 51.4047 153.74 50.9867 153.74 50.5127C153.74 50.0377 153.632 49.6217 153.416 49.2647C153.199 48.9077 152.904 48.6257 152.53 48.4227C152.156 48.2187 151.727 48.1167 151.245 48.1167C150.771 48.1167 150.345 48.2187 149.966 48.4227C149.588 48.6257 149.292 48.9067 149.08 49.2647C148.868 49.6217 148.762 50.0377 148.762 50.5127C148.762 50.9867 148.868 51.4047 149.08 51.7667C149.292 52.1277 149.587 52.4117 149.966 52.6157C150.345 52.8187 150.771 52.9217 151.245 52.9217Z" fill="#2B2B2B"/>
<path d="M157.972 53.9558V47.4048H158.82V49.1888L158.733 48.8768C158.916 48.3778 159.223 47.9968 159.656 47.7348C160.089 47.4728 160.625 47.3408 161.266 47.3408V48.2018C161.233 48.2018 161.199 48.1998 161.166 48.1958C161.133 48.1908 161.1 48.1888 161.066 48.1888C160.376 48.1888 159.835 48.3988 159.444 48.8188C159.053 49.2398 158.858 49.8368 158.858 50.6098V53.9538H157.972V53.9558Z" fill="#2B2B2B"/>
<path d="M165.719 54.0187C165.228 54.0187 164.802 53.9377 164.44 53.7757C164.078 53.6137 163.802 53.3887 163.61 53.1017C163.418 52.8147 163.323 52.4837 163.323 52.1097C163.323 51.7687 163.405 51.4597 163.567 51.1797C163.729 50.9017 163.995 50.6767 164.365 50.5057C164.735 50.3357 165.232 50.2497 165.856 50.2497H168.114V50.9117H165.881C165.249 50.9117 164.81 51.0227 164.565 51.2477C164.319 51.4727 164.197 51.7517 164.197 52.0847C164.197 52.4587 164.343 52.7577 164.634 52.9817C164.925 53.2067 165.333 53.3187 165.857 53.3187C166.356 53.3187 166.786 53.2047 167.149 52.9757C167.511 52.7467 167.774 52.4157 167.941 51.9837L168.141 52.5947C167.974 53.0277 167.685 53.3727 167.274 53.6307C166.863 53.8887 166.343 54.0187 165.719 54.0187ZM167.977 53.9567V52.5097L167.939 52.2727V49.8517C167.939 49.2947 167.783 48.8667 167.471 48.5667C167.159 48.2677 166.695 48.1187 166.08 48.1187C165.656 48.1187 165.252 48.1887 164.87 48.3307C164.487 48.4727 164.163 48.6587 163.897 48.8927L163.498 48.2317C163.831 47.9487 164.23 47.7297 164.696 47.5767C165.162 47.4227 165.653 47.3457 166.169 47.3457C167.017 47.3457 167.672 47.5567 168.134 47.9767C168.596 48.3967 168.826 49.0357 168.826 49.8917V53.9587H167.977V53.9567Z" fill="#2B2B2B"/>
<path d="M171.109 48.141V47.405H175.164V48.141H171.109ZM174.203 54.018C173.587 54.018 173.113 53.852 172.781 53.519C172.448 53.186 172.281 52.716 172.281 52.109V45.958H173.167V52.06C173.167 52.443 173.265 52.738 173.46 52.946C173.655 53.154 173.936 53.258 174.302 53.258C174.693 53.258 175.017 53.146 175.275 52.921L175.587 53.557C175.412 53.715 175.202 53.831 174.957 53.907C174.713 53.981 174.461 54.018 174.203 54.018Z" fill="#2B2B2B"/>
<path d="M178.546 45.9582C178.363 45.9582 178.209 45.8962 178.084 45.7712C177.959 45.6462 177.897 45.4962 177.897 45.3222C177.897 45.1472 177.959 45.0002 178.084 44.8792C178.209 44.7592 178.363 44.6982 178.546 44.6982C178.729 44.6982 178.883 44.7562 179.007 44.8732C179.132 44.9892 179.194 45.1352 179.194 45.3102C179.194 45.4932 179.134 45.6472 179.013 45.7722C178.893 45.8952 178.737 45.9582 178.546 45.9582ZM178.096 53.9562V47.4052H178.982V53.9562H178.096Z" fill="#2B2B2B"/>
<path d="M185.021 54.0178C184.38 54.0178 183.811 53.8738 183.312 53.5868C182.813 53.2998 182.418 52.9028 182.127 52.3958C181.835 51.8878 181.69 51.3148 181.69 50.6738C181.69 50.0168 181.836 49.4388 182.127 48.9398C182.418 48.4408 182.813 48.0488 183.312 47.7668C183.812 47.4838 184.381 47.3418 185.021 47.3418C185.67 47.3418 186.246 47.4858 186.749 47.7728C187.252 48.0598 187.647 48.4518 187.935 48.9458C188.222 49.4408 188.365 50.0168 188.365 50.6748C188.365 51.3228 188.222 51.8998 187.935 52.4028C187.648 52.9068 187.25 53.3008 186.744 53.5888C186.236 53.8748 185.662 54.0178 185.021 54.0178ZM185.021 53.2318C185.495 53.2318 185.915 53.1258 186.281 52.9138C186.647 52.7018 186.936 52.4018 187.148 52.0158C187.36 51.6298 187.466 51.1818 187.466 50.6748C187.466 50.1588 187.36 49.7098 187.148 49.3268C186.936 48.9438 186.647 48.6468 186.281 48.4338C185.915 48.2218 185.499 48.1168 185.033 48.1168C184.567 48.1168 184.151 48.2218 183.785 48.4338C183.419 48.6468 183.128 48.9438 182.912 49.3268C182.695 49.7098 182.587 50.1588 182.587 50.6748C182.587 51.1818 182.695 51.6288 182.912 52.0158C183.128 52.4028 183.417 52.7028 183.779 52.9138C184.141 53.1248 184.555 53.2318 185.021 53.2318Z" fill="#2B2B2B"/>
<path d="M191.072 53.9558V47.4048H191.92V49.2018L191.783 48.8648C191.991 48.3908 192.324 48.0188 192.782 47.7488C193.239 47.4778 193.784 47.3428 194.416 47.3428C194.948 47.3428 195.416 47.4458 195.82 47.6488C196.223 47.8528 196.539 48.1628 196.768 48.5788C196.997 48.9948 197.111 49.5188 197.111 50.1508V53.9568H196.225V50.2388C196.225 49.5488 196.053 49.0258 195.707 48.6728C195.361 48.3198 194.877 48.1428 194.253 48.1428C193.787 48.1428 193.381 48.2368 193.036 48.4238C192.691 48.6108 192.425 48.8808 192.238 49.2348C192.051 49.5888 191.957 50.0148 191.957 50.5138V53.9568L191.072 53.9558Z" fill="#2B2B2B"/>
<path d="M208.553 54.0314C207.896 54.0314 207.289 53.9214 206.731 53.7004C206.174 53.4794 205.691 53.1704 205.284 52.7704C204.877 52.3704 204.558 51.9014 204.329 51.3604C204.1 50.8204 203.986 50.2294 203.986 49.5894C203.986 48.9494 204.1 48.3594 204.329 47.8184C204.558 47.2774 204.878 46.8074 205.29 46.4084C205.702 46.0094 206.186 45.6994 206.744 45.4784C207.301 45.2584 207.909 45.1484 208.566 45.1484C209.198 45.1484 209.793 45.2534 210.35 45.4664C210.907 45.6784 211.377 45.9964 211.76 46.4204L211.174 47.0064C210.817 46.6414 210.421 46.3764 209.989 46.2144C209.556 46.0524 209.091 45.9714 208.592 45.9714C208.068 45.9714 207.581 46.0614 207.132 46.2404C206.683 46.4194 206.292 46.6734 205.959 47.0014C205.626 47.3304 205.366 47.7124 205.179 48.1484C204.992 48.5864 204.898 49.0664 204.898 49.5894C204.898 50.1134 204.992 50.5944 205.179 51.0304C205.366 51.4664 205.626 51.8494 205.959 52.1774C206.292 52.5064 206.683 52.7604 207.132 52.9394C207.581 53.1184 208.068 53.2074 208.592 53.2074C209.091 53.2074 209.557 53.1244 209.989 52.9584C210.421 52.7924 210.817 52.5254 211.174 52.1594L211.76 52.7464C211.378 53.1704 210.907 53.4904 210.35 53.7064C209.792 53.9234 209.194 54.0314 208.553 54.0314Z" fill="#2B2B2B"/>
<path d="M216.988 54.0178C216.347 54.0178 215.778 53.8738 215.279 53.5868C214.78 53.2998 214.385 52.9028 214.094 52.3958C213.802 51.8878 213.657 51.3148 213.657 50.6738C213.657 50.0168 213.803 49.4388 214.094 48.9398C214.385 48.4408 214.78 48.0488 215.279 47.7668C215.779 47.4838 216.348 47.3418 216.988 47.3418C217.637 47.3418 218.213 47.4858 218.716 47.7728C219.219 48.0598 219.614 48.4518 219.902 48.9458C220.189 49.4408 220.332 50.0168 220.332 50.6748C220.332 51.3228 220.189 51.8998 219.902 52.4028C219.615 52.9068 219.217 53.3008 218.711 53.5888C218.202 53.8748 217.628 54.0178 216.988 54.0178ZM216.988 53.2318C217.462 53.2318 217.882 53.1258 218.248 52.9138C218.614 52.7018 218.903 52.4018 219.115 52.0158C219.327 51.6298 219.433 51.1818 219.433 50.6748C219.433 50.1588 219.327 49.7098 219.115 49.3268C218.903 48.9438 218.614 48.6468 218.248 48.4338C217.882 48.2218 217.466 48.1168 217 48.1168C216.534 48.1168 216.118 48.2218 215.752 48.4338C215.386 48.6468 215.095 48.9438 214.879 49.3268C214.662 49.7098 214.554 50.1588 214.554 50.6748C214.554 51.1818 214.662 51.6288 214.879 52.0158C215.095 52.4028 215.384 52.7028 215.746 52.9138C216.108 53.1248 216.522 53.2318 216.988 53.2318Z" fill="#2B2B2B"/>
<path d="M223.039 53.9558V47.4048H223.887V49.2018L223.75 48.8648C223.958 48.3908 224.291 48.0188 224.749 47.7488C225.206 47.4778 225.751 47.3428 226.383 47.3428C226.915 47.3428 227.383 47.4458 227.787 47.6488C228.19 47.8528 228.506 48.1628 228.735 48.5788C228.964 48.9948 229.078 49.5188 229.078 50.1508V53.9568H228.192V50.2388C228.192 49.5488 228.02 49.0258 227.674 48.6728C227.328 48.3198 226.844 48.1428 226.22 48.1428C225.754 48.1428 225.348 48.2368 225.003 48.4238C224.658 48.6108 224.392 48.8808 224.205 49.2348C224.018 49.5888 223.924 50.0148 223.924 50.5138V53.9568L223.039 53.9558Z" fill="#2B2B2B"/>
<path d="M234.132 54.0187C233.591 54.0187 233.08 53.9417 232.597 53.7887C232.115 53.6347 231.736 53.4407 231.461 53.2077L231.86 52.5097C232.126 52.7087 232.467 52.8817 232.883 53.0277C233.299 53.1737 233.736 53.2467 234.194 53.2467C234.818 53.2467 235.267 53.1487 235.541 52.9527C235.815 52.7577 235.953 52.4977 235.953 52.1737C235.953 51.9327 235.876 51.7427 235.722 51.6067C235.568 51.4687 235.367 51.3657 235.117 51.2947C234.867 51.2247 234.589 51.1637 234.281 51.1137C233.973 51.0637 233.668 51.0057 233.364 50.9387C233.06 50.8717 232.784 50.7747 232.534 50.6457C232.284 50.5167 232.083 50.3397 231.929 50.1157C231.775 49.8907 231.698 49.5917 231.698 49.2177C231.698 48.8607 231.798 48.5397 231.997 48.2567C232.197 47.9747 232.49 47.7517 232.877 47.5897C233.264 47.4267 233.735 47.3457 234.293 47.3457C234.717 47.3457 235.142 47.4027 235.565 47.5147C235.989 47.6267 236.339 47.7747 236.613 47.9567L236.226 48.6687C235.934 48.4687 235.622 48.3247 235.29 48.2377C234.957 48.1497 234.624 48.1067 234.292 48.1067C233.701 48.1067 233.267 48.2087 232.988 48.4127C232.709 48.6167 232.57 48.8767 232.57 49.1917C232.57 49.4417 232.647 49.6367 232.8 49.7787C232.953 49.9207 233.158 50.0307 233.411 50.1087C233.665 50.1877 233.943 50.2527 234.247 50.3017C234.55 50.3527 234.854 50.4117 235.158 50.4837C235.462 50.5537 235.74 50.6497 235.994 50.7707C236.247 50.8907 236.452 51.0617 236.605 51.2817C236.759 51.5027 236.836 51.7917 236.836 52.1487C236.836 52.5317 236.73 52.8627 236.518 53.1407C236.306 53.4197 235.998 53.6357 235.595 53.7897C235.194 53.9417 234.705 54.0187 234.132 54.0187Z" fill="#2B2B2B"/>
<path d="M242.067 54.0183C241.509 54.0183 241.023 53.9143 240.607 53.7063C240.191 53.4993 239.869 53.1863 239.64 52.7703C239.411 52.3543 239.297 51.8343 239.297 51.2103V47.4053H240.183V51.1113C240.183 51.8093 240.356 52.3363 240.701 52.6893C241.046 53.0433 241.531 53.2193 242.155 53.2193C242.612 53.2193 243.009 53.1253 243.346 52.9393C243.683 52.7513 243.941 52.4793 244.119 52.1223C244.297 51.7653 244.388 51.3363 244.388 50.8373V47.4053H245.274V53.9563H244.425V52.1593L244.562 52.4833C244.354 52.9653 244.032 53.3423 243.595 53.6133C243.158 53.8843 242.649 54.0183 242.067 54.0183Z" fill="#2B2B2B"/>
<path d="M248.643 53.9562V44.6982H249.529V53.9562H248.643Z" fill="#2B2B2B"/>
<path d="M251.874 48.141V47.405H255.929V48.141H251.874ZM254.968 54.018C254.352 54.018 253.878 53.852 253.546 53.519C253.213 53.186 253.046 52.716 253.046 52.109V45.958H253.932V52.06C253.932 52.443 254.03 52.738 254.225 52.946C254.42 53.154 254.701 53.258 255.067 53.258C255.458 53.258 255.782 53.146 256.04 52.921L256.352 53.557C256.177 53.715 255.967 53.831 255.722 53.907C255.478 53.981 255.226 54.018 254.968 54.018Z" fill="#2B2B2B"/>
<path d="M260.708 54.0187C260.217 54.0187 259.792 53.9377 259.43 53.7757C259.068 53.6137 258.791 53.3887 258.599 53.1017C258.407 52.8147 258.312 52.4837 258.312 52.1097C258.312 51.7687 258.394 51.4597 258.556 51.1797C258.718 50.9017 258.984 50.6767 259.354 50.5057C259.724 50.3357 260.221 50.2497 260.845 50.2497H263.104V50.9117H260.871C260.239 50.9117 259.8 51.0227 259.555 51.2477C259.309 51.4727 259.186 51.7517 259.186 52.0847C259.186 52.4587 259.333 52.7577 259.624 52.9817C259.915 53.2067 260.322 53.3187 260.846 53.3187C261.345 53.3187 261.775 53.2047 262.138 52.9757C262.5 52.7467 262.764 52.4157 262.931 51.9837L263.13 52.5947C262.963 53.0277 262.674 53.3727 262.263 53.6307C261.852 53.8887 261.331 54.0187 260.708 54.0187ZM262.966 53.9567V52.5097L262.928 52.2727V49.8517C262.928 49.2947 262.773 48.8667 262.461 48.5667C262.149 48.2677 261.684 48.1187 261.069 48.1187C260.645 48.1187 260.241 48.1887 259.859 48.3307C259.476 48.4727 259.153 48.6587 258.887 48.8927L258.487 48.2317C258.82 47.9487 259.219 47.7297 259.685 47.5767C260.151 47.4227 260.643 47.3457 261.159 47.3457C262.007 47.3457 262.662 47.5567 263.124 47.9767C263.586 48.3967 263.815 49.0357 263.815 49.8917V53.9587H262.966V53.9567Z" fill="#2B2B2B"/>
<path d="M267.121 53.9558V47.4048H267.969V49.2018L267.832 48.8648C268.04 48.3908 268.373 48.0188 268.831 47.7488C269.288 47.4778 269.833 47.3428 270.465 47.3428C270.997 47.3428 271.465 47.4458 271.869 47.6488C272.272 47.8528 272.588 48.1628 272.817 48.5788C273.046 48.9948 273.16 49.5188 273.16 50.1508V53.9568H272.274V50.2388C272.274 49.5488 272.102 49.0258 271.756 48.6728C271.41 48.3198 270.926 48.1428 270.302 48.1428C269.836 48.1428 269.43 48.2368 269.085 48.4238C268.74 48.6108 268.474 48.8808 268.287 49.2348C268.1 49.5888 268.006 50.0148 268.006 50.5138V53.9568L267.121 53.9558Z" fill="#2B2B2B"/>
<path d="M275.431 48.141V47.405H279.486V48.141H275.431ZM278.526 54.018C277.91 54.018 277.436 53.852 277.104 53.519C276.771 53.186 276.604 52.716 276.604 52.109V45.958H277.49V52.06C277.49 52.443 277.588 52.738 277.783 52.946C277.978 53.154 278.259 53.258 278.625 53.258C279.016 53.258 279.34 53.146 279.598 52.921L279.91 53.557C279.735 53.715 279.525 53.831 279.28 53.907C279.035 53.981 278.783 54.018 278.526 54.018Z" fill="#2B2B2B"/>
<path d="M284.177 54.0187C283.636 54.0187 283.125 53.9417 282.642 53.7887C282.16 53.6347 281.781 53.4407 281.506 53.2077L281.905 52.5097C282.171 52.7087 282.512 52.8817 282.928 53.0277C283.344 53.1737 283.781 53.2467 284.239 53.2467C284.863 53.2467 285.312 53.1487 285.586 52.9527C285.86 52.7577 285.998 52.4977 285.998 52.1737C285.998 51.9327 285.921 51.7427 285.767 51.6067C285.613 51.4687 285.412 51.3657 285.162 51.2947C284.912 51.2247 284.634 51.1637 284.326 51.1137C284.018 51.0637 283.713 51.0057 283.409 50.9387C283.105 50.8717 282.829 50.7747 282.579 50.6457C282.329 50.5167 282.128 50.3397 281.974 50.1157C281.82 49.8907 281.743 49.5917 281.743 49.2177C281.743 48.8607 281.843 48.5397 282.042 48.2567C282.242 47.9747 282.535 47.7517 282.922 47.5897C283.309 47.4267 283.78 47.3457 284.338 47.3457C284.762 47.3457 285.187 47.4027 285.61 47.5147C286.034 47.6267 286.384 47.7747 286.658 47.9567L286.271 48.6687C285.979 48.4687 285.667 48.3247 285.335 48.2377C285.002 48.1497 284.669 48.1067 284.337 48.1067C283.746 48.1067 283.312 48.2087 283.033 48.4127C282.754 48.6167 282.615 48.8767 282.615 49.1917C282.615 49.4417 282.692 49.6367 282.845 49.7787C282.998 49.9207 283.203 50.0307 283.456 50.1087C283.71 50.1877 283.988 50.2527 284.292 50.3017C284.595 50.3527 284.899 50.4117 285.203 50.4837C285.507 50.5537 285.785 50.6497 286.039 50.7707C286.292 50.8907 286.497 51.0617 286.65 51.2817C286.804 51.5027 286.881 51.7917 286.881 52.1487C286.881 52.5317 286.775 52.8627 286.563 53.1407C286.351 53.4197 286.043 53.6357 285.64 53.7897C285.24 53.9417 284.751 54.0187 284.177 54.0187Z" fill="#2B2B2B"/>
<defs>
<linearGradient id="paint0_linear_51_4" x1="151.715" y1="24.4446" x2="287.745" y2="24.4446" gradientUnits="userSpaceOnUse">
<stop offset="2.77045e-07" stop-color="#FE0100"/>
<stop offset="0.3045" stop-color="#EF0000"/>
<stop offset="0.6531" stop-color="#C60000"/>
<stop offset="1" stop-color="#FE0100"/>
</linearGradient>
<linearGradient id="paint1_linear_51_4" x1="151.715" y1="24.4446" x2="287.744" y2="24.4446" gradientUnits="userSpaceOnUse">
<stop offset="2.77045e-07" stop-color="#FE0100"/>
<stop offset="0.3045" stop-color="#EF0000"/>
<stop offset="0.6531" stop-color="#C60000"/>
<stop offset="1" stop-color="#FE0100"/>
</linearGradient>
<linearGradient id="paint2_linear_51_4" x1="151.715" y1="24.4446" x2="287.745" y2="24.4446" gradientUnits="userSpaceOnUse">
<stop offset="2.77045e-07" stop-color="#FE0100"/>
<stop offset="0.3045" stop-color="#EF0000"/>
<stop offset="0.6531" stop-color="#C60000"/>
<stop offset="1" stop-color="#FE0100"/>
</linearGradient>
<linearGradient id="paint3_linear_51_4" x1="151.715" y1="24.4446" x2="287.745" y2="24.4446" gradientUnits="userSpaceOnUse">
<stop offset="2.77045e-07" stop-color="#FE0100"/>
<stop offset="0.3045" stop-color="#EF0000"/>
<stop offset="0.6531" stop-color="#C60000"/>
<stop offset="1" stop-color="#FE0100"/>
</linearGradient>
<linearGradient id="paint4_linear_51_4" x1="151.715" y1="24.4445" x2="287.745" y2="24.4445" gradientUnits="userSpaceOnUse">
<stop offset="2.77045e-07" stop-color="#FE0100"/>
<stop offset="0.3045" stop-color="#EF0000"/>
<stop offset="0.6531" stop-color="#C60000"/>
<stop offset="1" stop-color="#FE0100"/>
</linearGradient>
<linearGradient id="paint5_linear_51_4" x1="151.715" y1="24.4446" x2="287.745" y2="24.4446" gradientUnits="userSpaceOnUse">
<stop offset="2.77045e-07" stop-color="#FE0100"/>
<stop offset="0.3045" stop-color="#EF0000"/>
<stop offset="0.6531" stop-color="#C60000"/>
<stop offset="1" stop-color="#FE0100"/>
</linearGradient>
<linearGradient id="paint6_linear_51_4" x1="151.715" y1="24.4446" x2="287.745" y2="24.4446" gradientUnits="userSpaceOnUse">
<stop offset="2.77045e-07" stop-color="#FE0100"/>
<stop offset="0.3045" stop-color="#EF0000"/>
<stop offset="0.6531" stop-color="#C60000"/>
<stop offset="1" stop-color="#FE0100"/>
</linearGradient>
<linearGradient id="paint7_linear_51_4" x1="151.715" y1="24.4446" x2="287.745" y2="24.4446" gradientUnits="userSpaceOnUse">
<stop offset="2.77045e-07" stop-color="#FE0100"/>
<stop offset="0.3045" stop-color="#EF0000"/>
<stop offset="0.6531" stop-color="#C60000"/>
<stop offset="1" stop-color="#FE0100"/>
</linearGradient>
<linearGradient id="paint8_linear_51_4" x1="151.713" y1="24.4446" x2="287.745" y2="24.4446" gradientUnits="userSpaceOnUse">
<stop offset="2.77045e-07" stop-color="#FE0100"/>
<stop offset="0.3045" stop-color="#EF0000"/>
<stop offset="0.6531" stop-color="#C60000"/>
<stop offset="1" stop-color="#FE0100"/>
</linearGradient>
<linearGradient id="paint9_linear_51_4" x1="151.715" y1="24.4445" x2="287.745" y2="24.4445" gradientUnits="userSpaceOnUse">
<stop offset="2.77045e-07" stop-color="#FE0100"/>
<stop offset="0.3045" stop-color="#EF0000"/>
<stop offset="0.6531" stop-color="#C60000"/>
<stop offset="1" stop-color="#FE0100"/>
</linearGradient>
<linearGradient id="paint10_linear_51_4" x1="151.715" y1="24.4446" x2="287.745" y2="24.4446" gradientUnits="userSpaceOnUse">
<stop offset="2.77045e-07" stop-color="#FE0100"/>
<stop offset="0.3045" stop-color="#EF0000"/>
<stop offset="0.6531" stop-color="#C60000"/>
<stop offset="1" stop-color="#FE0100"/>
</linearGradient>
</defs>
</svg>
